<svg xmlns="http://www.w3.org/2000/svg" xmlns:xlink="http://www.w3.org/1999/xlink" width="1600" height="600" viewBox="0 0 1600 600">
    <defs>
        <path id="a" d="M0 510.4h1294.21V0H0z"/>
    </defs>
    <g fill="none" fill-rule="evenodd">
        <g opacity=".6" transform="translate(153 76)">
            <path fill="#FFF" d="M918.54 406.433H383.214c0-127.26 119.843-230.432 267.669-230.432 147.82 0 267.659 103.172 267.659 230.432z"/>
            <path fill="#5C8797" d="M918.916 406.433h-.75c0-61.438-27.796-119.203-78.267-162.654-50.486-43.465-117.614-67.403-189.017-67.403-71.405 0-138.536 23.938-189.025 67.403-50.472 43.451-78.27 101.216-78.27 162.654h-.75c0-61.659 27.89-119.626 78.53-163.223 50.626-43.582 117.93-67.584 189.515-67.584 71.582 0 138.884 24.002 189.507 67.584 50.639 43.596 78.527 101.564 78.527 163.223"/>
            <path fill="#FFF" d="M176.79 81.5c-3.577-1.264-7.39-.391-10.054 1.943a18.98 18.98 0 0 0-6.013-3.488 19.005 19.005 0 0 0-5.376-1.058c-2.952-6.8-8.61-12.402-16.148-15.07-14.404-5.096-30.215 2.452-35.312 16.86-.187.526-.325 1.063-.478 1.599-4.42.18-8.497 2.984-10.066 7.405-.011.04-.028.08-.036.118-1.873 5.488 2.556 11.129 8.353 11.129h33.914c1.078 6.645 5.654 12.515 12.446 14.919 9.912 3.505 20.792-1.686 24.299-11.601.367-1.025.61-2.063.792-3.101 4.282.13 8.342-2.483 9.845-6.74 1.864-5.264-.898-11.051-6.165-12.915"/>
            <path fill="#5C8797" d="M129.953 62.604c-4.014 0-8.009.896-11.738 2.678-6.58 3.14-11.543 8.657-13.975 15.531-.141.395-.252.796-.364 1.2l-.181.636-.27.012c-4.432.18-8.25 2.988-9.729 7.155l-.035.113c-.813 2.385-.415 4.961 1.092 7.07a8.518 8.518 0 0 0 6.907 3.564h34.233l.051.314a18.678 18.678 0 0 0 12.2 14.626c9.706 3.43 20.391-1.67 23.822-11.373.322-.9.576-1.894.776-3.04l.056-.32.325.01c4.268.117 8.062-2.479 9.479-6.49a9.67 9.67 0 0 0-.393-7.446 9.683 9.683 0 0 0-5.543-4.99 9.778 9.778 0 0 0-9.683 1.871l-.244.214-.247-.21a18.574 18.574 0 0 0-5.894-3.42 18.644 18.644 0 0 0-5.271-1.037l-.231-.013-.093-.213a27.387 27.387 0 0 0-15.929-14.865 27.32 27.32 0 0 0-9.121-1.577m24.397 54.72a19.426 19.426 0 0 1-19.092-16.01H101.66a9.268 9.268 0 0 1-7.517-3.88c-1.65-2.307-2.085-5.13-1.191-7.747l.037-.12a11.474 11.474 0 0 1 10.132-7.642l.032-.115c.117-.419.235-.837.38-1.248 2.499-7.062 7.598-12.729 14.358-15.957 6.761-3.23 14.373-3.629 21.433-1.13a28.142 28.142 0 0 1 16.274 15.061c1.807.114 3.573.471 5.25 1.065a19.3 19.3 0 0 1 5.887 3.351 10.525 10.525 0 0 1 10.181-1.806 10.434 10.434 0 0 1 5.97 5.375 10.42 10.42 0 0 1 .423 8.02 10.45 10.45 0 0 1-9.882 6.994h-.003a18.893 18.893 0 0 1-.751 2.846c-2.816 7.958-10.324 12.942-18.323 12.942"/>
            <path fill="#FFF" d="M1015.91 269.778l-.007 240.246h25.32l.012-240.574-23.379.033-41.07.226-4.392.029 14.847.04z"/>
            <path fill="#5C8797" d="M1016.278 509.649h24.57l.012-239.823-24.576.041-.006 239.782zm25.32.75h-26.07l.006-240.246h-28.293l-14.848-.04-.002-.75 4.392-.029 41.071-.226 23.756-.034-.013 241.325z"/>
            <path fill="#FFF" d="M955.893 269.458l-.004 240.566h60.018l.002-240.566z"/>
            <path fill="#5C8797" d="M956.264 509.649h59.268l.002-239.816h-59.266l-.004 239.816zm60.018.75h-60.768l.004-241.316h60.766l-.002 241.316z"/>
            <mask id="b" fill="#fff">
                <use xlink:href="#a"/>
            </mask>
            <path fill="#FFF" d="M991.257 301.127h16.273v-19.446h-16.273z" mask="url(#b)"/>
            <path fill="#5C8797" d="M991.632 300.753h15.523v-18.696h-15.523v18.696zm-.75.75h17.023v-20.196h-17.023v20.196z" mask="url(#b)"/>
            <path fill="#FFF" d="M965.388 301.127h16.276v-19.446h-16.276z" mask="url(#b)"/>
            <path fill="#5C8797" d="M965.763 300.753h15.526v-18.696h-15.526v18.696zm-.75.75h17.026v-20.196h-17.026v20.196z" mask="url(#b)"/>
            <path fill="#FFF" d="M1007.53 329.431v-19.453h-16.28l-.006 19.453z" mask="url(#b)"/>
            <path fill="#5C8797" d="M991.619 329.056h15.536v-18.703h-15.531l-.005 18.703zm16.286.75h-17.036l.005-20.203h17.031v20.203z" mask="url(#b)"/>
            <path fill="#FFF" d="M981.662 329.431l.002-19.453h-16.276l-.003 19.453z" mask="url(#b)"/>
            <path fill="#5C8797" d="M965.76 329.056h15.527l.002-18.703h-15.526l-.003 18.703zm16.277.75H965.01l.003-20.203h17.026l-.002 20.203z" mask="url(#b)"/>
            <path fill="#FFF" d="M991.257 357.837h16.273V338.39h-16.273z" mask="url(#b)"/>
            <path fill="#5C8797" d="M991.632 357.463h15.523v-18.697h-15.523v18.697zm-.75.75h17.023v-20.197h-17.023v20.197z" mask="url(#b)"/>
            <path fill="#FFF" d="M965.388 357.837h16.276V338.39h-16.276z" mask="url(#b)"/>
            <path fill="#5C8797" d="M965.763 357.463h15.526v-18.697h-15.526v18.697zm-.75.75h17.026v-20.197h-17.026v20.197z" mask="url(#b)"/>
            <path fill="#FFF" d="M1007.53 386.142V366.69h-16.28l-.006 19.453z" mask="url(#b)"/>
            <path fill="#5C8797" d="M991.619 385.767h15.536v-18.703h-15.531l-.005 18.703zm16.286.75h-17.036l.005-20.203h17.031v20.203z" mask="url(#b)"/>
            <path fill="#FFF" d="M981.662 386.142l.002-19.453h-16.276l-.003 19.453z" mask="url(#b)"/>
            <path fill="#5C8797" d="M965.76 385.767h15.527l.002-18.703h-15.526l-.003 18.703zm16.277.75H965.01l.003-20.203h17.026l-.002 20.203z" mask="url(#b)"/>
            <path fill="#FFF" d="M991.257 414.545h16.273v-19.447h-16.273z" mask="url(#b)"/>
            <path fill="#5C8797" d="M991.632 414.171h15.523v-18.697h-15.523v18.697zm-.75.75h17.023v-20.197h-17.023v20.197z" mask="url(#b)"/>
            <path fill="#FFF" d="M965.388 414.545h16.276v-19.447h-16.276z" mask="url(#b)"/>
            <path fill="#5C8797" d="M965.763 414.171h15.526v-18.697h-15.526v18.697zm-.75.75h17.026v-20.197h-17.026v20.197z" mask="url(#b)"/>
            <path fill="#FFF" d="M1007.53 442.85V423.4h-16.28l-.006 19.45z" mask="url(#b)"/>
            <path fill="#5C8797" d="M991.619 442.474h15.536v-18.7h-15.531l-.005 18.7zm16.286.75h-17.036l.005-20.2h17.031v20.2z" mask="url(#b)"/>
            <path fill="#FFF" d="M981.662 442.85l.002-19.45h-16.276l-.003 19.45z" mask="url(#b)"/>
            <path fill="#5C8797" d="M965.76 442.474h15.527l.002-18.7h-15.526l-.003 18.7zm16.277.75H965.01l.003-20.2h17.026l-.002 20.2z" mask="url(#b)"/>
            <path fill="#FFF" d="M939.781 442.849h16.279v-19.445h-16.279z" mask="url(#b)"/>
            <path fill="#5C8797" d="M940.156 442.474h15.529v-18.695h-15.529v18.695zm-.75.75h17.029v-20.195h-17.029v20.195z" mask="url(#b)"/>
            <path fill="#FFF" d="M956.061 414.546v-19.447H939.79l-.007 19.447z" mask="url(#b)"/>
            <path fill="#5C8797" d="M940.157 414.17h15.53v-18.697h-15.523l-.007 18.697zm16.28.75h-17.03l.007-20.197h17.022v20.197z" mask="url(#b)"/>
            <path fill="#FFF" d="M991.257 471.252h16.273v-19.444h-16.273z" mask="url(#b)"/>
            <path fill="#5C8797" d="M991.632 470.878h15.523v-18.694h-15.523v18.694zm-.75.75h17.023v-20.194h-17.023v20.194z" mask="url(#b)"/>
            <path fill="#FFF" d="M965.388 471.252h16.276v-19.444h-16.276z" mask="url(#b)"/>
            <path fill="#5C8797" d="M965.763 470.878h15.526v-18.694h-15.526v18.694zm-.75.75h17.026v-20.194h-17.026v20.194z" mask="url(#b)"/>
            <path fill="#FFF" d="M1007.53 499.56v-19.456h-16.28l-.006 19.455z" mask="url(#b)"/>
            <path fill="#5C8797" d="M991.619 499.184h15.536V480.48h-15.531l-.005 18.705zm16.286.75h-17.036l.005-20.205h17.031v20.205z" mask="url(#b)"/>
            <path fill="#FFF" d="M981.662 499.56l.002-19.456h-16.276l-.003 19.455z" mask="url(#b)"/>
            <path fill="#5C8797" d="M965.76 499.184h15.527l.002-18.705h-15.526l-.003 18.705zm16.277.75H965.01l.003-20.205h17.026l-.002 20.205z" mask="url(#b)"/>
            <path fill="#FFF" d="M939.781 499.559h16.279v-19.447h-16.279z" mask="url(#b)"/>
            <path fill="#5C8797" d="M940.156 499.184h15.529v-18.697h-15.529v18.697zm-.75.75h17.029v-20.197h-17.029v20.197z" mask="url(#b)"/>
            <path fill="#FFF" d="M956.061 471.252v-19.444H939.79l-.007 19.445z" mask="url(#b)"/>
            <path fill="#5C8797" d="M940.157 470.877h15.53v-18.694h-15.523l-.007 18.695zm16.28.75h-17.03l.007-20.194h17.022v20.195z" mask="url(#b)"/>
            <path fill="#FFF" d="M1136.768 450.991h52.895V330.958h-52.895z" mask="url(#b)"/>
            <path fill="#5C8797" d="M1137.143 450.616h52.145V331.333h-52.145v119.283zm-.75.75h53.645V330.583h-53.645v120.783z" mask="url(#b)"/>
            <path fill="#FFF" d="M1189.663 510.023h34.757V330.958h-34.757z" mask="url(#b)"/>
            <path fill="#5C8797" d="M1190.038 509.648h34.007V331.333h-34.007v178.315zm-.75.75h35.507V330.583h-35.507v179.815z" mask="url(#b)"/>
            <path fill="#FFF" d="M1157.209 330.958h25.899v-13.862h-25.899z" mask="url(#b)"/>
            <path fill="#5C8797" d="M1157.584 330.583h25.149v-13.112h-25.149v13.112zm-.75.75h26.649v-14.612h-26.649v14.612z" mask="url(#b)"/>
            <path fill="#FFF" d="M1183.105 330.958h17.019v-13.862h-17.019z" mask="url(#b)"/>
            <path fill="#5C8797" d="M1183.48 330.583h16.269v-13.112h-16.269v13.112zm-.75.75h17.769v-14.612h-17.769v14.612z" mask="url(#b)"/>
            <path fill="#FFF" d="M98.53 438.085h39.675v-90.034H98.53z" mask="url(#b)"/>
            <path fill="#5C8797" d="M98.905 437.71h38.925v-89.284H98.905v89.284zm-.75.75h40.425v-90.784H98.155v90.784z" mask="url(#b)"/>
            <path fill="#FFF" d="M138.205 438.085h26.073v-90.034h-26.073z" mask="url(#b)"/>
            <path fill="#5C8797" d="M138.58 437.71h25.323v-89.284H138.58v89.284zm-.75.75h26.823v-90.784H137.83v90.784z" mask="url(#b)"/>
            <path fill="#FFF" d="M113.861 348.05h19.426v-10.395h-19.426z" mask="url(#b)"/>
            <path fill="#5C8797" d="M114.236 347.675h18.676v-9.645h-18.676v9.645zm-.75.75h20.176V337.28h-20.176v11.145z" mask="url(#b)"/>
            <path fill="#FFF" d="M133.288 348.05h12.766v-10.395h-12.766z" mask="url(#b)"/>
            <path fill="#5C8797" d="M133.663 347.675h12.016v-9.645h-12.016v9.645zm-.75.75h13.516V337.28h-13.516v11.145z" mask="url(#b)"/>
            <path fill="#FFF" d="M661.891 510.023h62.166V393.812h-62.166z" mask="url(#b)"/>
            <path fill="#5C8797" d="M662.266 509.648h61.416V394.187h-61.416v115.461zm-.75.75h62.916V393.437h-62.916v116.961z" mask="url(#b)"/>
            <path fill="#FFF" d="M724.06 510.023h40.853V393.812H724.06z" mask="url(#b)"/>
            <path fill="#5C8797" d="M724.435 509.648h40.103V394.187h-40.103v115.461zm-.75.75h41.603V393.437h-41.603v116.961z" mask="url(#b)"/>
            <path fill="#FFF" d="M685.912 393.814h30.437v-16.29h-30.437z" mask="url(#b)"/>
            <path fill="#5C8797" d="M686.287 393.439h29.687v-15.54h-29.687v15.54zm-.75.75h31.187v-17.04h-31.187v17.04z" mask="url(#b)"/>
            <path fill="#FFF" d="M716.348 393.814h20.003v-16.29h-20.003z" mask="url(#b)"/>
            <path fill="#5C8797" d="M716.724 393.439h19.253v-15.54h-19.253v15.54zm-.751.75h20.753v-17.04h-20.753v17.04zM594.017 410.423h13.155v-.75h-13.155zM550.024 410.259h15.663v-.75h-15.663z" mask="url(#b)"/>
            <path fill="#FFF" d="M503.75 231.635v15.814h8.347v13.876h-8.346v15.814h8.346v13.876h-8.346v15.814h8.346v13.877h-8.346v15.815h8.346v13.881h-8.346v15.805h8.346v13.883h-8.346v15.807h8.346v13.878h-8.346v100.248h111.915V231.635z" mask="url(#b)"/>
            <path fill="#5C8797" d="M504.126 509.648H615.29V232.01H504.126v15.065h8.346v14.626h-8.346v15.063h8.346v14.626h-8.346v15.065h8.346v14.627h-8.346v15.064h8.346v14.631h-8.346v15.056h8.346v14.632h-8.346v15.057h8.346v14.628h-8.346v99.498zm111.915.75H503.376V409.4h8.346v-13.128h-8.346v-16.557h8.346v-13.132h-8.346v-16.556h8.346v-13.131h-8.346v-16.564h8.346v-13.127h-8.346V290.64h8.346v-13.126h-8.346v-16.563h8.346v-13.126h-8.346V231.26H616.04v279.138z" mask="url(#b)"/>
            <path fill="#FFF" d="M598.516 231.635v276.18h50.229v-98.04h-4.325v-13.878h4.325V380.09h-4.325v-13.883h4.325v-15.805h-4.325v-13.88h4.325v-15.816h-4.325V306.83h4.325v-15.814h-4.325V277.14h4.325v-15.814h-4.325V247.45h4.325v-15.814h-4.325z" mask="url(#b)"/>
            <path fill="#5C8797" d="M598.891 507.44h49.479v-97.29h-4.325v-14.628h4.325v-15.057h-4.325v-14.632h4.325v-15.056h-4.325v-14.631h4.325v-15.064h-4.325v-14.627h4.325V291.39h-4.325v-14.626h4.325v-15.063h-4.325v-14.626h4.325V232.01H598.89v275.43zm50.229.75H598.14V231.26h50.979v16.565h-4.325v13.126h4.325v16.563h-4.325v13.126h4.325v16.565h-4.325v13.127h4.325v16.564h-4.325v13.131h4.325v16.556h-4.325v13.132h4.325v16.557h-4.325V409.4h4.325v98.79z" mask="url(#b)"/>
            <path fill="#FFF" d="M599.388 395.901h-.872v13.875h6.662-97.251v-13.875h43.117z" mask="url(#b)"/>
            <path fill="#5C8797" d="M508.302 409.401h89.839v-13.125h-89.839v13.125zm96.876.75h-97.626v-14.625h91.836v.75h-.497v13.125h6.287v.75z" mask="url(#b)"/>
            <path fill="#FFF" d="M599.388 366.208h-.872v13.88h6.662-97.251v-13.88h43.117z" mask="url(#b)"/>
            <path fill="#5C8797" d="M508.302 379.713h89.839v-13.131h-89.839v13.131zm96.876.75h-97.626v-14.63h91.836v.75h-.497v13.13h6.287v.75z" mask="url(#b)"/>
            <path fill="#FFF" d="M599.388 336.521h-.872v13.882h6.662-97.251v-13.882h43.117z" mask="url(#b)"/>
            <path fill="#5C8797" d="M508.302 350.028h89.839v-13.132h-89.839v13.132zm96.876.75h-97.626v-14.632h91.836v.75h-.497v13.132h6.287v.75z" mask="url(#b)"/>
            <path fill="#FFF" d="M599.388 306.83h-.872v13.877h6.662-97.251V306.83h43.117z" mask="url(#b)"/>
            <path fill="#5C8797" d="M508.302 320.332h89.839v-13.126h-89.839v13.126zm96.876.75h-97.626v-14.626h91.836v.75h-.497v13.126h6.287v.75z" mask="url(#b)"/>
            <path fill="#FFF" d="M599.388 277.14h-.872v13.876h6.662-97.251V277.14h43.117z" mask="url(#b)"/>
            <path fill="#5C8797" d="M508.302 290.641h89.839v-13.127h-89.839v13.127zm96.876.75h-97.626v-14.627h91.836v.75h-.497v13.127h6.287v.75z" mask="url(#b)"/>
            <path fill="#FFF" d="M599.388 247.45h-.872v13.877h6.662-97.251V247.45h43.117z" mask="url(#b)"/>
            <path fill="#5C8797" d="M508.302 260.952h89.839v-13.127h-89.839v13.127zm96.876.75h-97.626v-14.627h91.836v.75h-.497v13.127h6.287v.75z" mask="url(#b)"/>
            <path fill="#FFF" d="M593.427 409.777h51.486v-13.886h-51.486z" mask="url(#b)"/>
            <path fill="#5C8797" d="M593.802 409.402h50.736v-13.136h-50.736v13.136zm-.75.75h52.236v-14.636h-52.236v14.636z" mask="url(#b)"/>
            <path fill="#FFF" d="M593.427 380.083h51.486v-13.881h-51.486z" mask="url(#b)"/>
            <path fill="#5C8797" d="M593.802 379.708h50.736v-13.131h-50.736v13.131zm-.75.75h52.236v-14.631h-52.236v14.631z" mask="url(#b)"/>
            <path fill="#FFF" d="M593.427 350.393h51.486v-13.881h-51.486z" mask="url(#b)"/>
            <path fill="#5C8797" d="M593.802 350.018h50.736v-13.131h-50.736v13.131zm-.75.75h52.236v-14.631h-52.236v14.631z" mask="url(#b)"/>
            <path fill="#FFF" d="M593.427 320.707h51.486V306.82h-51.486z" mask="url(#b)"/>
            <path fill="#5C8797" d="M593.802 320.332h50.736v-13.137h-50.736v13.137zm-.75.75h52.236v-14.637h-52.236v14.637z" mask="url(#b)"/>
            <path fill="#FFF" d="M593.427 291.009h51.486v-13.88h-51.486z" mask="url(#b)"/>
            <path fill="#5C8797" d="M593.802 290.633h50.736v-13.13h-50.736v13.13zm-.75.75h52.236v-14.63h-52.236v14.63z" mask="url(#b)"/>
            <path fill="#FFF" d="M593.427 261.317h51.486v-13.875h-51.486z" mask="url(#b)"/>
            <path fill="#5C8797" d="M593.802 260.942h50.736v-13.125h-50.736v13.125zm-.75.75h52.236v-14.625h-52.236v14.625z" mask="url(#b)"/>
            <path fill="#FFF" d="M187.528 510.023h126.716V244.438H187.528z" mask="url(#b)"/>
            <path fill="#5C8797" d="M187.903 509.648h125.966V244.813H187.903v264.835zm-.75.75h127.466V244.063H187.153v266.335z" mask="url(#b)"/>
            <path fill="#FFF" d="M204.216 244.439h110.028v-18.556H204.216z" mask="url(#b)"/>
            <path fill="#5C8797" d="M204.591 244.064h109.278v-17.806H204.591v17.806zm-.75.75h110.778v-19.306H203.841v19.306z" mask="url(#b)"/>
            <path fill="#FFF" d="M274.617 510.023h39.627v-284.14h-39.627z" mask="url(#b)"/>
            <path fill="#5C8797" d="M274.992 509.648h38.877v-283.39h-38.877v283.39zm-.75.75h40.377v-284.89h-40.377v284.89z" mask="url(#b)"/>
            <path fill="#FFF" d="M187.53 272.228h87.087v-10.316H187.53z" mask="url(#b)"/>
            <path fill="#5C8797" d="M187.905 271.853h86.337v-9.566h-86.337v9.566zm-.75.75h87.837v-11.066h-87.837v11.066z" mask="url(#b)"/>
            <path fill="#FFF" d="M187.528 293.785h87.089v-10.307h-87.089z" mask="url(#b)"/>
            <path fill="#5C8797" d="M187.903 293.41h86.339v-9.557h-86.339v9.557zm-.75.75h87.839v-11.057h-87.839v11.057z" mask="url(#b)"/>
            <path fill="#FFF" d="M187.528 315.35h87.089v-10.313h-87.089z" mask="url(#b)"/>
            <path fill="#5C8797" d="M187.903 314.975h86.339v-9.563h-86.339v9.563zm-.75.75h87.839v-11.063h-87.839v11.063z" mask="url(#b)"/>
            <path fill="#FFF" d="M187.528 336.912h87.089v-10.31h-87.089z" mask="url(#b)"/>
            <path fill="#5C8797" d="M187.903 336.537h86.339v-9.56h-86.339v9.56zm-.75.75h87.839v-11.06h-87.839v11.06z" mask="url(#b)"/>
            <path fill="#FFF" d="M187.528 358.477h87.089v-10.313h-87.089z" mask="url(#b)"/>
            <path fill="#5C8797" d="M187.903 358.102h86.339v-9.563h-86.339v9.563zm-.75.75h87.839v-11.063h-87.839v11.063z" mask="url(#b)"/>
            <path fill="#FFF" d="M187.528 380.037h87.089v-10.313h-87.089z" mask="url(#b)"/>
            <path fill="#5C8797" d="M187.903 379.662h86.339v-9.563h-86.339v9.563zm-.75.75h87.839v-11.063h-87.839v11.063z" mask="url(#b)"/>
            <path fill="#FFF" d="M187.528 401.602h87.089v-10.313h-87.089z" mask="url(#b)"/>
            <path fill="#5C8797" d="M187.903 401.227h86.339v-9.563h-86.339v9.563zm-.75.75h87.839v-11.063h-87.839v11.063z" mask="url(#b)"/>
            <path fill="#FFF" d="M187.528 423.162h87.089v-10.31h-87.089z" mask="url(#b)"/>
            <path fill="#5C8797" d="M187.903 422.787h86.339v-9.56h-86.339v9.56zm-.75.75h87.839v-11.06h-87.839v11.06z" mask="url(#b)"/>
            <path fill="#FFF" d="M187.528 444.73h87.089v-10.315h-87.089z" mask="url(#b)"/>
            <path fill="#5C8797" d="M187.903 444.355h86.339v-9.565h-86.339v9.565zm-.75.75h87.839V434.04h-87.839v11.065z" mask="url(#b)"/>
            <path fill="#FFF" d="M187.528 466.287h87.089v-10.31h-87.089z" mask="url(#b)"/>
            <path fill="#5C8797" d="M187.903 465.912h86.339v-9.56h-86.339v9.56zm-.75.75h87.839v-11.06h-87.839v11.06z" mask="url(#b)"/>
            <path fill="#FFF" d="M187.528 487.855h87.089V477.54h-87.089z" mask="url(#b)"/>
            <path fill="#5C8797" d="M187.903 487.48h86.339v-9.565h-86.339v9.565zm-.75.75h87.839v-11.065h-87.839v11.065z" mask="url(#b)"/>
            <path fill="#FFF" d="M187.528 510.023h87.089v-10.921h-87.089z" mask="url(#b)"/>
            <path fill="#5C8797" d="M187.903 509.648h86.339v-10.171h-86.339v10.171zm-.75.75h87.839v-11.671h-87.839v11.671z" mask="url(#b)"/>
            <path fill="#FFF" d="M274.617 272.228h39.627V261.91h-39.627z" mask="url(#b)"/>
            <path fill="#5C8797" d="M274.992 271.853h38.877v-9.568h-38.877v9.568zm-.75.75h40.377v-11.068h-40.377v11.068z" mask="url(#b)"/>
            <path fill="#FFF" d="M274.617 293.785h39.627v-10.307h-39.627z" mask="url(#b)"/>
            <path fill="#5C8797" d="M274.992 293.41h38.877v-9.557h-38.877v9.557zm-.75.75h40.377v-11.057h-40.377v11.057z" mask="url(#b)"/>
            <path fill="#FFF" d="M274.617 315.35h39.627v-10.313h-39.627z" mask="url(#b)"/>
            <path fill="#5C8797" d="M274.992 314.975h38.877v-9.563h-38.877v9.563zm-.75.75h40.377v-11.063h-40.377v11.063z" mask="url(#b)"/>
            <path fill="#FFF" d="M274.617 336.912h39.627v-10.31h-39.627z" mask="url(#b)"/>
            <path fill="#5C8797" d="M274.992 336.537h38.877v-9.56h-38.877v9.56zm-.75.75h40.377v-11.06h-40.377v11.06z" mask="url(#b)"/>
            <path fill="#FFF" d="M274.617 358.477h39.627v-10.313h-39.627z" mask="url(#b)"/>
            <path fill="#5C8797" d="M274.992 358.102h38.877v-9.563h-38.877v9.563zm-.75.75h40.377v-11.063h-40.377v11.063z" mask="url(#b)"/>
            <path fill="#FFF" d="M274.617 380.037h39.627v-10.313h-39.627z" mask="url(#b)"/>
            <path fill="#5C8797" d="M274.992 379.662h38.877v-9.563h-38.877v9.563zm-.75.75h40.377v-11.063h-40.377v11.063z" mask="url(#b)"/>
            <path fill="#FFF" d="M274.617 401.602h39.627v-10.313h-39.627z" mask="url(#b)"/>
            <path fill="#5C8797" d="M274.992 401.227h38.877v-9.563h-38.877v9.563zm-.75.75h40.377v-11.063h-40.377v11.063z" mask="url(#b)"/>
            <path fill="#FFF" d="M274.617 423.162h39.627v-10.31h-39.627z" mask="url(#b)"/>
            <path fill="#5C8797" d="M274.992 422.787h38.877v-9.56h-38.877v9.56zm-.75.75h40.377v-11.06h-40.377v11.06z" mask="url(#b)"/>
            <path fill="#FFF" d="M274.617 444.73h39.627v-10.315h-39.627z" mask="url(#b)"/>
            <path fill="#5C8797" d="M274.992 444.355h38.877v-9.565h-38.877v9.565zm-.75.75h40.377V434.04h-40.377v11.065z" mask="url(#b)"/>
            <path fill="#FFF" d="M274.617 466.287h39.627v-10.31h-39.627z" mask="url(#b)"/>
            <path fill="#5C8797" d="M274.992 465.912h38.877v-9.56h-38.877v9.56zm-.75.75h40.377v-11.06h-40.377v11.06z" mask="url(#b)"/>
            <path fill="#FFF" d="M274.617 487.855h39.627V477.54h-39.627z" mask="url(#b)"/>
            <path fill="#5C8797" d="M274.992 487.48h38.877v-9.565h-38.877v9.565zm-.75.75h40.377v-11.065h-40.377v11.065z" mask="url(#b)"/>
            <path fill="#FFF" d="M1127.262 105.326h28.775l-16.224-21.616h-15.345z" mask="url(#b)"/>
            <path fill="#5C8797" d="M1127.592 104.95h27.694l-15.661-20.865h-14.73l2.697 20.866zm29.194.75h-29.854l-2.891-22.365H1140l16.786 22.366z" mask="url(#b)"/>
            <path fill="#FFF" d="M977.764 144.761c1.18-7.066 7.82-12.23 15.313-12.368a15.98 15.98 0 0 1 10.5 3.675c2.417-7.562 9.422-13.108 17.803-13.259 9.063-.165 16.749 6.033 18.842 14.475 7.26-.119 13.255 5.668 13.386 12.936.13 7.275-5.663 14.854-12.938 14.986h-41.846c-19.366 0-22.474-11.969-21.06-20.445" mask="url(#b)"/>
            <path fill="#5C8797" d="M978.135 144.824c-.521 3.12-.8 9.063 3.197 13.78 3.499 4.133 9.385 6.228 17.492 6.228h41.846c7.335-.133 12.685-7.82 12.563-14.605-.126-6.973-5.844-12.57-12.792-12.57-.072 0-.142.002-.213.003l-.298.005-.072-.29c-2.082-8.401-9.503-14.194-18.12-14.194a18.679 18.679 0 0 0-17.805 13.001l-.168.528-.427-.353a15.693 15.693 0 0 0-10.253-3.59c-7.397.137-13.825 5.32-14.95 12.057zm20.689 20.758c-8.338 0-14.416-2.185-18.064-6.492-4.191-4.95-3.907-11.14-3.365-14.39 1.184-7.087 7.924-12.54 15.677-12.682a16.368 16.368 0 0 1 10.319 3.422 19.432 19.432 0 0 1 17.984-13.006c9.013-.14 16.844 5.773 19.138 14.474 7.323.039 13.337 5.947 13.47 13.306.128 7.138-5.535 15.227-13.306 15.368h-41.853z" mask="url(#b)"/>
            <path fill="#96BA3E" d="M235.443 508.834h.088-.088zM582.837 508.834h.089-.09zM350.294 508.834h.089-.09zM612.23 509.101h.09-.09z" mask="url(#b)"/>
            <path fill="#FFF" d="M690.558 444.006l-.007 66.018h67.042l.007-66.082-14.288.008-42.077.044-4.484.006-5.145.006z" mask="url(#b)"/>
            <path fill="#5C8797" d="M690.926 509.649h66.293l.006-65.332-66.291.064-.008 65.268zm67.043.75h-67.793l.008-66.768 67.79-.064-.005 66.832z" mask="url(#b)"/>
            <path fill="#FFF" d="M696.751 445.699h62.971V439.3h-62.971z" mask="url(#b)"/>
            <path fill="#5C8797" d="M697.126 445.324h62.221v-5.648h-62.221v5.648zm-.75.75h63.721v-7.148h-63.721v7.148z" mask="url(#b)"/>
            <path fill="#FFF" d="M690.469 504.525v5.499h51.65V445.7h-51.64v20.488z" mask="url(#b)"/>
            <path fill="#5C8797" d="M690.844 509.649h50.9v-63.574h-50.89l-.01 63.574zm51.65.75h-52.4l.01-65.074h52.39v65.074z" mask="url(#b)"/>
            <path fill="#FFF" d="M737.003 460.928v-7.094h-41.396l-.007 7.094z" mask="url(#b)"/>
            <path fill="#5C8797" d="M695.975 460.553h40.653v-6.344h-40.646l-.007 6.344zm41.403.75h-42.154l.008-7.844h42.146v7.844z" mask="url(#b)"/>
            <path fill="#FFF" d="M737.003 473.573v-7.094h-41.396l-.007 7.094z" mask="url(#b)"/>
            <path fill="#5C8797" d="M695.975 473.198h40.653v-6.344h-40.646l-.007 6.344zm41.403.75h-42.154l.008-7.844h42.146v7.844z" mask="url(#b)"/>
            <path fill="#FFF" d="M737.003 486.214v-7.091h-41.396l-.007 7.091z" mask="url(#b)"/>
            <path fill="#5C8797" d="M695.975 485.84h40.653v-6.342h-40.646l-.007 6.341zm41.403.75h-42.154l.008-7.842h42.146v7.841z" mask="url(#b)"/>
            <path fill="#FFF" d="M737.003 498.859v-7.094h-41.396l-.007 7.094z" mask="url(#b)"/>
            <path fill="#5C8797" d="M695.975 498.484h40.653v-6.344h-40.646l-.007 6.344zm41.403.75h-42.154l.008-7.844h42.146v7.844z" mask="url(#b)"/>
            <path fill="#FFF" d="M688.553 445.699h54.762V439.3h-54.762z" mask="url(#b)"/>
            <path fill="#5C8797" d="M688.928 445.324h54.012v-5.648h-54.012v5.648zm-.751.75h55.512v-7.148h-55.512v7.148z" mask="url(#b)"/>
            <path fill="#FFF" d="M917.308 384.88l-.005 125.146h67.043l.008-125.21-14.288.005-42.082.043-4.479.007-5.15.009z" mask="url(#b)"/>
            <path fill="#5C8797" d="M917.678 509.65h66.294l.007-124.46-66.295.064-.006 124.396zm67.044.75h-67.794l.006-125.896 67.795-.064-.007 125.96z" mask="url(#b)"/>
            <path fill="#FFF" d="M923.505 386.572h62.972v-6.402h-62.972z" mask="url(#b)"/>
            <path fill="#5C8797" d="M923.88 386.197h62.222v-5.652H923.88v5.652zm-.751.75h63.722v-7.152h-63.722v7.152z" mask="url(#b)"/>
            <path fill="#FFF" d="M917.231 386.573l-.003 123.45h51.647l.002-123.45z" mask="url(#b)"/>
            <path fill="#5C8797" d="M917.603 509.649H968.5l.003-122.701h-50.896l-.003 122.701zm51.646.75h-52.396l.003-124.201h52.396l-.003 124.201z" mask="url(#b)"/>
            <path fill="#FFF" d="M953.811 404.175h9.948v-11.886h-9.948z" mask="url(#b)"/>
            <path fill="#5C8797" d="M954.185 403.799h9.198v-11.136h-9.198v11.136zm-.749.75h10.698v-12.636h-10.698v12.636z" mask="url(#b)"/>
            <path fill="#FFF" d="M938.002 404.175h9.948v-11.886h-9.948z" mask="url(#b)"/>
            <path fill="#5C8797" d="M938.377 403.799h9.198v-11.136h-9.198v11.136zm-.75.75h10.698v-12.636h-10.698v12.636z" mask="url(#b)"/>
            <path fill="#FFF" d="M963.759 421.471v-11.89h-9.951l-.003 11.89z" mask="url(#b)"/>
            <path fill="#5C8797" d="M954.18 421.096h9.204v-11.14h-9.201l-.003 11.14zm9.954.75H953.43l.003-12.64h10.7v12.64z" mask="url(#b)"/>
            <path fill="#FFF" d="M947.947 421.471l.003-11.89h-9.947L938 421.47z" mask="url(#b)"/>
            <path fill="#5C8797" d="M938.375 421.096h9.197l.003-11.14h-9.197l-.003 11.14zm9.947.75h-10.697l.003-12.64h10.697l-.003 12.64z" mask="url(#b)"/>
            <path fill="#FFF" d="M922.353 421.472h9.948v-11.887h-9.948z" mask="url(#b)"/>
            <path fill="#5C8797" d="M922.727 421.096h9.198v-11.137h-9.198v11.137zm-.749.75h10.698v-12.637h-10.698v12.637z" mask="url(#b)"/>
            <path fill="#FFF" d="M932.3 404.174v-11.886h-9.944l-.003 11.886z" mask="url(#b)"/>
            <path fill="#5C8797" d="M922.727 403.8h9.197v-11.137h-9.194l-.003 11.136zm9.947.75h-10.697l.003-12.637h10.694v12.636z" mask="url(#b)"/>
            <path fill="#FFF" d="M953.811 439.794h9.948v-11.883h-9.948z" mask="url(#b)"/>
            <path fill="#5C8797" d="M954.185 439.419h9.198v-11.133h-9.198v11.133zm-.749.75h10.698v-12.633h-10.698v12.633z" mask="url(#b)"/>
            <path fill="#FFF" d="M938.002 439.794h9.948v-11.883h-9.948z" mask="url(#b)"/>
            <path fill="#5C8797" d="M938.377 439.419h9.198v-11.133h-9.198v11.133zm-.75.75h10.698v-12.633h-10.698v12.633z" mask="url(#b)"/>
            <path fill="#FFF" d="M963.759 457.093v-11.889h-9.951l-.003 11.89z" mask="url(#b)"/>
            <path fill="#5C8797" d="M954.18 456.718h9.204V445.58h-9.201l-.003 11.14zm9.954.75H953.43l.003-12.639h10.7v12.64z" mask="url(#b)"/>
            <path fill="#FFF" d="M947.947 457.093l.003-11.889h-9.947l-.003 11.89z" mask="url(#b)"/>
            <path fill="#5C8797" d="M938.375 456.718h9.197l.003-11.139h-9.197l-.003 11.14zm9.947.75h-10.697l.003-12.639h10.697l-.003 12.64z" mask="url(#b)"/>
            <path fill="#FFF" d="M922.353 457.094h9.948V445.21h-9.948z" mask="url(#b)"/>
            <path fill="#5C8797" d="M922.727 456.718h9.198v-11.134h-9.198v11.134zm-.749.75h10.698v-12.634h-10.698v12.634z" mask="url(#b)"/>
            <path fill="#FFF" d="M932.3 439.794V427.91h-9.944l-.003 11.883z" mask="url(#b)"/>
            <path fill="#5C8797" d="M922.727 439.419h9.197v-11.133h-9.194l-.003 11.133zm9.947.75h-10.697l.003-12.633h10.694v12.633z" mask="url(#b)"/>
            <path fill="#FFF" d="M953.811 475.419h9.948v-11.886h-9.948z" mask="url(#b)"/>
            <path fill="#5C8797" d="M954.185 475.044h9.198v-11.136h-9.198v11.136zm-.749.75h10.698v-12.636h-10.698v12.636z" mask="url(#b)"/>
            <path fill="#FFF" d="M938.002 475.419h9.948v-11.886h-9.948z" mask="url(#b)"/>
            <path fill="#5C8797" d="M938.377 475.044h9.198v-11.136h-9.198v11.136zm-.75.75h10.698v-12.636h-10.698v12.636z" mask="url(#b)"/>
            <path fill="#FFF" d="M963.759 492.715v-11.89h-9.951l-.003 11.89z" mask="url(#b)"/>
            <path fill="#5C8797" d="M954.18 492.34h9.204V481.2h-9.201l-.003 11.14zm9.954.75H953.43l.003-12.64h10.7v12.64zM938.375 492.34h9.197l.003-11.14h-9.197l-.003 11.14zm9.947.75h-10.697l.003-12.64h10.697l-.003 12.64z" mask="url(#b)"/>
            <path fill="#FFF" d="M922.353 492.717h9.948v-11.888h-9.948z" mask="url(#b)"/>
            <path fill="#5C8797" d="M922.727 492.341h9.198v-11.138h-9.198v11.138zm-.749.75h10.698v-12.638h-10.698v12.638z" mask="url(#b)"/>
            <path fill="#FFF" d="M932.3 475.419v-11.886h-9.944l-.003 11.886z" mask="url(#b)"/>
            <path fill="#5C8797" d="M922.727 475.044h9.197v-11.136h-9.194l-.003 11.136zm9.947.75h-10.697l.003-12.636h10.694v12.636z" mask="url(#b)"/>
            <path fill="#FFF" d="M915.306 386.572h54.759v-6.402h-54.759z" mask="url(#b)"/>
            <path fill="#5C8797" d="M915.681 386.197h54.009v-5.652h-54.009v5.652zm-.751.75h55.509v-7.152H914.93v7.152zM1081.805 397.313h11.586v-.75h-11.586zM1070.692 421.38h22.704v-.75h-22.704zM1115.78 468.171h15.943v-.75h-15.943zM1117.859 490.899h6.238v-.75h-6.238zM1059.761 439.058h7.486v-.75h-7.486zM1071.377 468.171h26.163v-.75h-26.163zM1055.493 376.29h15.202v-.75h-15.202zM1100.032 376.29h22.932v-.75h-22.932zM1124.786 376.29h8.322v-.75h-8.322z" mask="url(#b)"/>
            <path fill="#5C8797" d="M1073.397 397.313h11.586v-.75h-11.586zM1062.287 421.38h22.699v-.75h-22.699zM1107.368 468.171h15.943v-.75h-15.943zM1109.45 490.899h6.238v-.75h-6.238zM1062.971 468.171h26.166v-.75h-26.166z" mask="url(#b)"/>
            <path fill="#FFF" d="M1052.455 373.925v14.496h5.279v12.722h-5.279v14.493h5.279v12.717h-5.279v14.496h5.279v12.721h-5.279v14.496h5.279v12.726h-5.279v14.486h5.279v12.728h-5.279l122.146-.31v-135.77z" mask="url(#b)"/>
            <path fill="#5C8797" d="M1052.83 496.903h5.279v12.714l116.117-.295V374.3H1052.83v13.747h5.279v13.47h-5.279v13.744h5.279v13.467h-5.279v13.746h5.279v13.47h-5.279v13.747h5.279v13.477h-5.279v13.735zm5.279 13.479h-5.654l-.001-.75 4.905-.013v-11.966h-5.279v-15.235h5.279V470.44h-5.279v-15.246h5.279v-11.971h-5.279v-15.246h5.279V416.01h-5.279v-15.243h5.279v-11.971h-5.279V373.55h122.896v136.52l-116.867.312z" mask="url(#b)"/>
            <path fill="#FFF" d="M1151.9 373.925v136.097l43.617-.016h-2.734v-12.728h2.734v-14.486h-2.734v-12.726h2.734V455.57h-2.734v-12.72h2.734v-14.497h-2.734v-12.717h2.734v-14.493h-2.734v-12.722h2.734v-14.496h-2.734z" mask="url(#b)"/>
            <path fill="#5C8797" d="M1152.275 374.3v135.347l40.133-.015v-12.729h2.734v-13.736h-2.734v-13.476h2.734v-13.746h-2.734v-13.47h2.734v-13.747h-2.734v-13.467h2.734v-13.743h-2.734v-13.472h2.734V374.3h-42.867zm-.75 136.097V373.55h44.367v15.246h-2.734v11.972h2.734v15.243h-2.734v11.967h2.734v15.246h-2.734v11.971h2.734v15.246h-2.734v11.976h2.734v15.236h-2.734v11.978h2.36v.75l-43.993.016z" mask="url(#b)"/>
            <path fill="#FFF" d="M1112.934 497.28h38.967v12.725h-96.804V497.28h27.266z" mask="url(#b)"/>
            <path fill="#5C8797" d="M1055.473 509.629h96.054v-11.975h-96.054v11.975zm-.751.75h97.554v-13.475h-97.554v13.475z" mask="url(#b)"/>
            <path fill="#FFF" d="M1112.934 470.066h38.967v12.725h-96.804v-12.725h27.266z" mask="url(#b)"/>
            <path fill="#5C8797" d="M1055.473 482.416h96.054v-11.975h-96.054v11.975zm-.751.75h97.554v-13.475h-97.554v13.475z" mask="url(#b)"/>
            <path fill="#FFF" d="M1112.934 442.85h38.967v12.718h-96.804V442.85h27.266z" mask="url(#b)"/>
            <path fill="#5C8797" d="M1055.473 455.193h96.054v-11.969h-96.054v11.969zm-.751.75h97.554v-13.469h-97.554v13.469z" mask="url(#b)"/>
            <path fill="#FFF" d="M1112.934 415.635h38.967v12.72h-96.804v-12.72h27.266z" mask="url(#b)"/>
            <path fill="#5C8797" d="M1055.473 427.979h96.054V416.01h-96.054v11.969zm-.751.75h97.554V415.26h-97.554v13.469z" mask="url(#b)"/>
            <path fill="#FFF" d="M1112.934 388.421h38.967v12.72h-96.804v-12.72h27.266z" mask="url(#b)"/>
            <path fill="#5C8797" d="M1055.473 400.765h96.054v-11.969h-96.054v11.969zm-.751.75h97.554v-13.469h-97.554v13.469z" mask="url(#b)"/>
            <path fill="#FFF" d="M1148.685 509.995h44.411v-12.719h-44.411z" mask="url(#b)"/>
            <path fill="#5C8797" d="M1149.059 509.62h43.661v-11.969h-43.661v11.969zm-.749.75h45.161v-13.469h-45.161v13.469z" mask="url(#b)"/>
            <path fill="#FFF" d="M1148.685 482.781h44.411V470.06h-44.411z" mask="url(#b)"/>
            <path fill="#5C8797" d="M1149.059 482.406h43.661v-11.971h-43.661v11.971zm-.749.75h45.161v-13.471h-45.161v13.471z" mask="url(#b)"/>
            <path fill="#FFF" d="M1148.685 455.567h44.411v-12.728h-44.411z" mask="url(#b)"/>
            <path fill="#5C8797" d="M1149.059 455.192h43.661v-11.978h-43.661v11.978zm-.749.75h45.161v-13.478h-45.161v13.478z" mask="url(#b)"/>
            <path fill="#FFF" d="M1148.685 428.351h44.411v-12.724h-44.411z" mask="url(#b)"/>
            <path fill="#5C8797" d="M1149.059 427.975h43.661v-11.974h-43.661v11.974zm-.749.75h45.161v-13.474h-45.161v13.474z" mask="url(#b)"/>
            <path fill="#FFF" d="M1148.685 401.131h44.411v-12.718h-44.411z" mask="url(#b)"/>
            <path fill="#5C8797" d="M1149.059 400.755h43.661v-11.968h-43.661v11.968zm-.749.75h45.161v-13.468h-45.161v13.468zM53.132 227.006h10.177v-.75H53.132z" mask="url(#b)"/>
            <path fill="#FFF" d="M58.222 219.579l-12.246-12.065-12.241 12.065-12.236-12.065-3.428 3.38c3.398 4.892 7.186 10.12 11.285 15.737H63.31l6.732-6.638c1.845-2.602 3.647-5.135 5.373-7.6l-4.952-4.88-12.241 12.066z" mask="url(#b)"/>
            <path fill="#5C8797" d="M29.546 226.256h33.61l6.622-6.529 1.067-1.513c1.394-1.965 2.76-3.89 4.08-5.774l-4.462-4.4-12.241 12.067-12.246-12.067-12.242 12.067-12.235-12.067-2.941 2.9c3.442 4.945 7.308 10.274 10.988 15.316zm33.917.75H29.165l-.112-.155c-3.78-5.178-7.765-10.668-11.291-15.743l-.181-.258 3.918-3.863 12.235 12.067 12.242-12.067 12.246 12.067 12.24-12.067 5.442 5.363-.181.26a1325.59 1325.59 0 0 1-4.266 6.037l-1.11 1.564-6.884 6.794z" mask="url(#b)"/>
            <path fill="#FFF" d="M65.342 226.631c1.592-2.26 3.163-4.472 4.7-6.638l-6.732 6.638h2.032z" mask="url(#b)"/>
            <path fill="#5C8797" d="M64.225 226.256h.922c.712-1.01 1.418-2.01 2.12-3l-3.042 3zm1.312.75h-3.143l7.386-7.279.569.483-.373.525c-1.418 1.998-2.864 4.034-4.328 6.112l-.111.16z" mask="url(#b)"/>
            <path fill="#FFF" d="M5.384 151.786a47.046 47.046 0 0 0-3.612 9.759l7.49 7.384 12.236-12.067 12.238 12.067 12.24-12.067 12.245 12.067 12.242-12.067 12.247 12.067 10.134-9.982a46.914 46.914 0 0 0-4.057-9.33" mask="url(#b)"/>
            <path fill="#5C8797" d="M33.735 169.455L21.498 157.39 9.262 169.455l-7.906-7.792.051-.207a47.532 47.532 0 0 1 3.641-9.837l.67.336a46.782 46.782 0 0 0-3.53 9.475l7.074 6.972 12.236-12.065 12.237 12.065 12.24-12.065 12.245 12.065 12.243-12.065 12.247 12.065 9.708-9.56a46.748 46.748 0 0 0-3.958-9.038l.652-.371a47.384 47.384 0 0 1 4.09 9.404l.067.219-10.559 10.399-12.247-12.065-12.243 12.065-12.246-12.065-12.239 12.065zM33.735 194.784l-12.237-12.07-11.972 11.81L9 193.99l12.5-12.33 12.236 12.07 12.24-12.07 12.246 12.07 12.242-12.07 12.51 12.329-.527.535-11.983-11.81-12.242 12.069-12.246-12.07z" mask="url(#b)"/>
            <path fill="#5C8797" d="M5.718 151.954l-.67-.336a47.829 47.829 0 0 1 17.548-19.185l.25-.157 10.889 10.736 12.24-12.065 12.247 12.065 12.143-11.973.422.245a47.672 47.672 0 0 1 13.294 10.94 47.862 47.862 0 0 1 5.032 7.208l-.653.37a47.112 47.112 0 0 0-17.975-17.827l-12.263 12.089L45.976 132l-12.241 12.064-10.995-10.84a47.091 47.091 0 0 0-17.022 18.73" mask="url(#b)"/>
            <path fill="#FFF" d="M94.875 170.207a47.11 47.11 0 0 0-2.03-11.26L82.71 168.93l-12.247-12.068-12.241 12.068-12.246-12.068-12.241 12.068-12.237-12.068L9.263 168.93l-7.492-7.384a47.414 47.414 0 0 0-1.396 11.426c0 .154.009.312.01.467" mask="url(#b)"/>
            <path fill="#5C8797" d="M.01 173.445l-.01-.473c0-3.876.474-7.75 1.407-11.515l.16-.64 7.696 7.586 12.235-12.067 12.238 12.067 12.24-12.067 12.245 12.067 12.242-12.067 12.247 12.067 10.309-10.153.183.588a47.446 47.446 0 0 1 2.047 11.348l-.748.043a46.847 46.847 0 0 0-1.836-10.578l-9.955 9.805-12.247-12.068-12.242 12.068-12.245-12.068-12.24 12.068-12.238-12.068-12.235 12.068-7.282-7.177A47.146 47.146 0 0 0 .75 172.972l.01.463-.75.01zM45.975 130.948l12.246 12.063 11.598-11.434c-2.403-1.447-4.912-2.627-8.956-3.63l-.358-.09c-2.129-.528-4.328-1.074-6.562-1.374a46.42 46.42 0 0 0-16.648.736 46.03 46.03 0 0 0-5.337 1.537 46.442 46.442 0 0 0-8.558 4.064l10.336 10.19 12.24-12.062zm-12.24 13.115l-11.543-11.38.404-.251a47.33 47.33 0 0 1 9.111-4.383 46.923 46.923 0 0 1 5.423-1.563 47.27 47.27 0 0 1 16.912-.747c2.276.306 4.496.857 6.643 1.39l.36.09c4.367 1.083 6.986 2.37 9.576 3.968l.407.25-12.807 12.626L45.977 132l-12.24 12.062z" mask="url(#b)"/>
            <path fill="#FFF" d="M12.707 202.924a287.28 287.28 0 0 0 5.364 7.97l3.428-3.382 12.235 12.066 12.242-12.066 12.246 12.066 12.24-12.066 4.954 4.882a472.264 472.264 0 0 0 5.443-7.897" mask="url(#b)"/>
            <path fill="#5C8797" d="M33.734 220.105L21.498 208.04l-3.48 3.434-.255-.366a287.506 287.506 0 0 1-5.372-7.98l.631-.407a278.745 278.745 0 0 0 5.103 7.593l3.373-3.327 12.236 12.065 12.241-12.065 12.246 12.065 12.242-12.065 4.9 4.83a454.182 454.182 0 0 0 5.184-7.527l.624.418a463.913 463.913 0 0 1-5.449 7.902l-.254.362-5.005-4.932-12.242 12.065-12.246-12.065-12.24 12.065z" mask="url(#b)"/>
            <path fill="#FFF" d="M24.517 219.973l4.838 6.66.601 2.063 4.698 17.325 2.822 9.576 2.824 9.573h15.712l2.453-9.573 2.453-9.576 4.423-19.389 4.702-6.638-45.527-.02zm9.87 26.048l-3.384-13.886h16.664v13.886h-13.28zm26.752 0H47.666v-13.886h16.261l-2.79 13.886z" mask="url(#b)"/>
            <path fill="#5C8797" d="M34.94 245.647h12.352v-13.136H31.48l.894 3.667 2.567 9.47zm13.102 0H60.62l1.781-7.808 1.07-5.328H48.042v13.136zm-7.462 19.148h15.14l4.714-18.398h-25.28l5.426 18.398zm15.722.75H40.02l-5.646-19.148h-.28l-2.447-10.035-2.633-9.562-4.8-6.605.607-.442 4.895 6.775.602 2.064.858 3.17h32.612l1.25-5.346 4.7-6.638.611.433-4.658 6.578-2.557 11.206-1.687 8.402h-.237l-4.907 19.148z" mask="url(#b)"/>
            <path fill="#5C8797" d="M29.053 226.852c-.963-1.318-1.904-2.612-2.835-3.89l-2.435-3.364h.005a612.19 612.19 0 0 1-6.025-8.489 287.86 287.86 0 0 1-5.371-7.982c-3.043-4.699-5.414-8.765-7.248-12.432C1.792 184.001.114 178.36.01 173.448L0 172.972c0-3.874.474-7.749 1.407-11.516a47.536 47.536 0 0 1 3.642-9.837 47.8 47.8 0 0 1 26.66-23.57 47.129 47.129 0 0 1 5.423-1.563 47.924 47.924 0 0 1 10.535-1.184c2.079 0 4.225.148 6.377.437 2.29.307 4.525.864 6.684 1.402l.317.078c4.237 1.052 6.827 2.293 9.34 3.824l.054-.046.393.313a47.664 47.664 0 0 1 13.25 10.916 47.84 47.84 0 0 1 5.03 7.205 47.34 47.34 0 0 1 4.09 9.407 47.438 47.438 0 0 1 2.047 11.348c.042.754.09 1.75.09 2.786 0 3.566-.962 7.566-2.942 12.23-2.235 5.262-5.697 11.28-11.226 19.504a462.12 462.12 0 0 1-5.448 7.904c-1.424 2.028-2.895 4.103-4.398 6.224l-.96 1.356a1683.762 1683.762 0 0 0-4.716 6.657l-.614-.432c1.599-2.27 3.175-4.49 4.719-6.66l.96-1.354c1.502-2.12 2.972-4.195 4.396-6.223a464.536 464.536 0 0 0 5.438-7.889c5.502-8.186 8.943-14.163 11.159-19.38 1.94-4.57 2.882-8.474 2.882-11.937 0-.794-.027-1.64-.088-2.744a46.725 46.725 0 0 0-2.015-11.168 46.535 46.535 0 0 0-4.027-9.258 47.14 47.14 0 0 0-4.95-7.092 46.936 46.936 0 0 0-13.086-10.769l-.196-.114c-2.528-1.562-5.088-2.819-9.363-3.879l-.317-.079c-2.14-.534-4.352-1.084-6.602-1.386a46.419 46.419 0 0 0-16.648.735c-1.826.41-3.622.928-5.336 1.538a46.653 46.653 0 0 0-8.97 4.314 47.072 47.072 0 0 0-17.272 18.885 46.743 46.743 0 0 0-3.583 9.681A47.126 47.126 0 0 0 .75 172.972l.01.463c.1 4.795 1.754 10.332 5.054 16.924 1.822 3.641 4.18 7.685 7.208 12.361a289.127 289.127 0 0 0 5.356 7.961 638.384 638.384 0 0 0 6.446 9.071l4.835 6.66-.606.44z" mask="url(#b)"/>
            <path fill="#FFF" d="M1157.185 105.825H1264.098c10.294 0 19.382 5.14 24.858 12.984h-153.85a49.596 49.596 0 0 1-8.069-12.984h30.148z" mask="url(#b)"/>
            <path fill="#5C8797" d="M1135.277 118.434h152.95c-5.638-7.675-14.603-12.234-24.129-12.234h-136.49a49.148 49.148 0 0 0 7.67 12.234zm154.397.75h-154.74l-.113-.13a49.918 49.918 0 0 1-8.129-13.083l-.222-.52h137.628c10.012 0 19.42 4.913 25.165 13.143l.411.59z" mask="url(#b)"/>
            <path fill="#FFF" d="M1293.79 130.094a.17.17 0 0 1 .004.031l.01.075-.013-.106z" mask="url(#b)"/>
            <path fill="#5C8797" d="M1293.443 130.3l.211-.08-.222.028-.009-.065h.001l-.005-.04.741-.116.016.126z" mask="url(#b)"/>
            <path fill="#FFF" d="M1293.794 130.126l-.015-.118c-.006-.02-.008-.038-.01-.056h-.004a30.048 30.048 0 0 0-4.826-11.14h.016c-.055-.08-.115-.155-.171-.233a31.499 31.499 0 0 0-1.408-1.819c-.19-.227-.375-.458-.571-.682a33.51 33.51 0 0 0-1.382-1.462c-.21-.21-.428-.405-.644-.606a30.955 30.955 0 0 0-1.027-.922c-.231-.195-.46-.392-.694-.581a30.532 30.532 0 0 0-1.565-1.182c-.195-.137-.397-.265-.597-.4a29.092 29.092 0 0 0-3.618-2.071c-.17-.083-.335-.173-.507-.253a30.527 30.527 0 0 0-2.024-.84c-.22-.082-.44-.156-.663-.234a30.581 30.581 0 0 0-1.654-.525c-.204-.06-.407-.121-.611-.176a31.54 31.54 0 0 0-2.24-.501c-.158-.028-.32-.048-.48-.073a31.188 31.188 0 0 0-1.92-.257c-.221-.022-.44-.045-.663-.061a29.713 29.713 0 0 0-2.417-.108h-137.072a49.515 49.515 0 0 0 3.5 6.732c.102.159.21.312.309.469a48.888 48.888 0 0 0 1.763 2.603c.163.225.336.439.502.66a50.63 50.63 0 0 0 1.803 2.268c.07.08.132.172.203.254h.02c8.9 10.345 21.976 17 36.626 17.292v.028h116.364l-.133-1.551 4.998-3.861.097.56.54-.19.21-.64s-.016-.17-.035-.324" mask="url(#b)"/>
            <path fill="#5C8797" d="M1172.128 135.756h115.58l-.114-1.348 5.652-4.367.11.645.09-.276-.048-.383c-.814-3.939-2.417-7.64-4.767-11l-.358-.515a32.138 32.138 0 0 0-1.186-1.514l-.2-.24c-.12-.147-.24-.29-.364-.434a32.57 32.57 0 0 0-1.365-1.443c-.153-.153-.312-.299-.47-.445l-.164-.153a32.53 32.53 0 0 0-1.016-.912l-.166-.139a23.888 23.888 0 0 0-.52-.434 29.785 29.785 0 0 0-1.545-1.167 12.4 12.4 0 0 0-.386-.26l-.203-.135a31.094 31.094 0 0 0-2.087-1.276 31.129 31.129 0 0 0-1.487-.769l-.205-.104c-.097-.05-.195-.1-.296-.147a30.54 30.54 0 0 0-1.998-.83c-.147-.054-.296-.105-.444-.157l-.211-.073a31.689 31.689 0 0 0-1.634-.519l-.215-.062a17.184 17.184 0 0 0-.388-.11 30.417 30.417 0 0 0-2.211-.495 5.61 5.61 0 0 0-.274-.043l-.198-.03a30.815 30.815 0 0 0-1.9-.254c-.224-.022-.437-.045-.653-.06a29.402 29.402 0 0 0-2.388-.107h-136.501c.908 2.072 2 4.141 3.249 6.16l.305.465c.618.971 1.19 1.816 1.749 2.583.098.135.199.265.299.395l.2.261c.612.814 1.198 1.55 1.79 2.251.039.044.078.093.116.143l.105.11c9.146 10.627 22.395 16.882 36.35 17.16l.367.028zm116.397.75l-117.147-.037c-13.976-.382-27.224-6.665-36.423-17.283h-.001l-.133-.13a3.822 3.822 0 0 1-.111-.142l-.09-.11a50.752 50.752 0 0 1-1.82-2.289l-.193-.253c-.105-.137-.21-.273-.312-.413a49.804 49.804 0 0 1-1.775-2.62l-.31-.472a50.168 50.168 0 0 1-3.528-6.785l-.221-.522h137.638c.743 0 1.543.035 2.447.11.22.015.439.038.66.06.665.07 1.312.154 1.955.261l.184.027c.1.015.2.03.3.047.748.138 1.51.31 2.269.508.139.036.274.076.409.116l.21.062c.565.162 1.124.34 1.675.532l.207.071c.155.054.309.107.463.164.729.275 1.418.561 2.049.851.11.052.218.105.324.16l.19.097a30.364 30.364 0 0 1 2.253 1.207c.479.283.948.582 1.41.89l.198.131c.138.09.274.18.407.274.513.36 1.03.752 1.584 1.196.18.146.357.295.534.445l.167.142c.356.305.7.616 1.04.934l.163.15c.165.152.33.305.49.465.473.47.944.968 1.398 1.478.13.15.256.301.38.451l.198.24a31.876 31.876 0 0 1 1.426 1.841l.589.826h-.03a30.226 30.226 0 0 1 4.42 10.39h.033l.063.49-.37.06.372-.046.044.412-.292.89-1.133.4-.066-.385-4.344 3.355.15 1.754z" mask="url(#b)"/>
            <path fill="#FFF" d="M1267.154 113.294v-.005H1284a30.384 30.384 0 0 1 8.004 11.043h-24.85a5.521 5.521 0 0 1-5.52-5.518 5.52 5.52 0 0 1 5.52-5.52" mask="url(#b)"/>
            <path fill="#5C8797" d="M1267.53 113.664l-.376.006a5.15 5.15 0 0 0-5.146 5.143 5.151 5.151 0 0 0 5.146 5.145h24.278a30.177 30.177 0 0 0-7.574-10.294h-16.329zm25.04 11.044h-25.416a5.903 5.903 0 0 1-5.896-5.895 5.901 5.901 0 0 1 5.521-5.881v-.018h17.361l.107.093a30.898 30.898 0 0 1 8.102 11.179l.22.522z" mask="url(#b)"/>
            <path fill="#FFF" d="M1275.444 130.45h18.387l.002.068a5.617 5.617 0 0 1-5.614 5.614c-.036 0-.07-.008-.103-.008v.008h-116.364v-.03a49.4 49.4 0 0 1-22.034-5.651h125.726z" mask="url(#b)"/>
            <path fill="#5C8797" d="M1288.165 136.124l.06-.367a5.244 5.244 0 0 0 5.224-4.931h-142.157c6.404 3.11 13.28 4.76 20.468 4.902l.367.029 115.989-.008.049.375zm.055.383l-116.843-.037c-7.695-.208-15.04-2.12-21.832-5.687l-1.348-.707h146.008v.375c.003 3.369-2.684 6.056-5.985 6.056z" mask="url(#b)"/>
            <path fill="#FFF" d="M1223.6 137.044a5.82 5.82 0 1 0 5.82-5.821 5.82 5.82 0 0 0-5.82 5.82" mask="url(#b)"/>
            <path fill="#5C8797" d="M1229.42 131.597a5.451 5.451 0 0 0-5.444 5.446 5.452 5.452 0 0 0 5.444 5.447 5.453 5.453 0 0 0 5.447-5.447 5.452 5.452 0 0 0-5.447-5.446m0 11.643a6.202 6.202 0 0 1-6.194-6.197 6.201 6.201 0 0 1 6.194-6.196 6.203 6.203 0 0 1 6.197 6.196 6.204 6.204 0 0 1-6.197 6.197" mask="url(#b)"/>
            <path fill="#FFF" d="M1218.788 130.45h-27.448l-1.347 10.563 27.859 2.619h13.299V130.45z" mask="url(#b)"/>
            <path fill="#5C8797" d="M1190.414 140.675l27.474 2.583 12.888-.002v-12.43h-39.106l-1.256 9.85zm41.112 3.331h-13.674l-28.28-2.657 1.438-11.274h40.516v13.931z" mask="url(#b)"/>
            <path fill="#FFF" d="M1175.682 114.261a4.552 4.552 0 1 0 .005 9.105 4.552 4.552 0 0 0-.005-9.105" mask="url(#b)"/>
            <path fill="#5C8797" d="M1175.682 114.636a4.181 4.181 0 0 0-4.175 4.178 4.18 4.18 0 0 0 4.175 4.177 4.183 4.183 0 0 0 4.181-4.177 4.184 4.184 0 0 0-4.18-4.178m0 9.105a4.931 4.931 0 0 1-4.926-4.927 4.932 4.932 0 0 1 4.925-4.928 4.935 4.935 0 0 1 4.931 4.928 4.934 4.934 0 0 1-4.93 4.927M1194.495 114.846a4.182 4.182 0 0 0-4.176 4.18 4.18 4.18 0 0 0 4.176 4.174 4.181 4.181 0 0 0 4.178-4.175 4.183 4.183 0 0 0-4.178-4.179m0 9.104a4.931 4.931 0 0 1-4.926-4.925 4.933 4.933 0 0 1 4.926-4.929 4.934 4.934 0 0 1 4.928 4.93 4.932 4.932 0 0 1-4.928 4.924" mask="url(#b)"/>
            <path fill="#FFF" d="M1213.304 114.682a4.552 4.552 0 0 0 0 9.103 4.548 4.548 0 0 0 4.549-4.55 4.548 4.548 0 0 0-4.55-4.553" mask="url(#b)"/>
            <path fill="#5C8797" d="M1213.304 115.057a4.181 4.181 0 0 0-4.176 4.178 4.18 4.18 0 0 0 4.176 4.175 4.18 4.18 0 0 0 4.173-4.175 4.18 4.18 0 0 0-4.173-4.178m0 9.103a4.931 4.931 0 0 1-4.926-4.925 4.933 4.933 0 0 1 4.926-4.928 4.931 4.931 0 0 1 4.923 4.928 4.93 4.93 0 0 1-4.923 4.925" mask="url(#b)"/>
            <path fill="#FFF" d="M1232.114 114.893a4.548 4.548 0 0 0-4.55 4.55 4.55 4.55 0 0 0 4.55 4.553 4.552 4.552 0 0 0 0-9.103" mask="url(#b)"/>
            <path fill="#5C8797" d="M1232.114 115.268a4.18 4.18 0 0 0-4.176 4.175 4.181 4.181 0 0 0 4.176 4.178 4.182 4.182 0 0 0 4.178-4.178 4.181 4.181 0 0 0-4.178-4.175m0 9.103a4.933 4.933 0 0 1-4.926-4.928 4.931 4.931 0 0 1 4.926-4.925 4.932 4.932 0 0 1 4.928 4.925 4.934 4.934 0 0 1-4.928 4.928" mask="url(#b)"/>
            <path fill="#FFF" d="M1250.924 115.105a4.547 4.547 0 0 0-4.551 4.55 4.552 4.552 0 0 0 9.103 0 4.549 4.549 0 0 0-4.552-4.55" mask="url(#b)"/>
            <path fill="#5C8797" d="M1250.924 115.48a4.18 4.18 0 0 0-4.176 4.175 4.18 4.18 0 0 0 4.176 4.176 4.181 4.181 0 0 0 4.177-4.176 4.18 4.18 0 0 0-4.177-4.175m0 9.101a4.932 4.932 0 0 1-4.926-4.926 4.931 4.931 0 0 1 4.926-4.925 4.931 4.931 0 0 1 4.927 4.925 4.932 4.932 0 0 1-4.927 4.926" mask="url(#b)"/>
            <path fill="#FFF" d="M1161.618 146.903h20.777l41.205-16.452h-33.475z" mask="url(#b)"/>
            <path fill="#5C8797" d="M1163.018 146.528h19.304l39.327-15.702h-31.425l-27.206 15.702zm19.448.75h-22.249l29.806-17.202h35.526l-43.083 17.202z" mask="url(#b)"/>
            <path fill="#FFF" d="M1156.288 105.68h-29.337s-13.833 9.641-12.998 9.641h19.594c.835 0 22.741-9.64 22.741-9.64" mask="url(#b)"/>
            <path fill="#5C8797" d="M1114.797 114.946h18.75c.788-.12 12.407-5.14 20.956-8.891h-27.434c-4.121 2.873-10.374 7.327-12.272 8.89m18.75.75h-19.87l-.116-.278c-.105-.331-.223-.706 13.175-10.044l.097-.068h31.238l-1.631.718c-5.157 2.27-22.045 9.673-22.893 9.673" mask="url(#b)"/>
            <path fill="#FFF" d="M317.724 130.69c-3.931-2.651-7.332-2.477-10.328-1.45-3.433-4.464-8.812-7.355-14.877-7.355-.781 0-1.546.06-2.305.155-5.498-6.942-13.98-11.405-23.52-11.405-10.855 0-20.335 5.779-25.605 14.407a18.685 18.685 0 0 0-10.423-3.157c-6.41 0-12.065 3.219-15.448 8.126-2.908-1.552-6.434-2.095-10.274-.534-3.596 1.464-6.368 4.668-7.2 8.464a12.264 12.264 0 0 0-.252 1.668c-.45 5.316 3.948 9.81 9.28 9.81h107.319c5.113 0 9.486-4.14 9.288-9.246 0-.06-.002-.112-.007-.17-.2-3.8-2.495-7.186-5.649-9.313" mask="url(#b)"/>
            <path fill="#5C8797" d="M209.549 128.923c-1.488 0-2.987.3-4.465.901-3.507 1.428-6.18 4.57-6.973 8.198-.122.55-.205 1.096-.247 1.618-.201 2.383.598 4.683 2.249 6.48a9.072 9.072 0 0 0 6.66 2.923H314.09a9.15 9.15 0 0 0 6.56-2.787c1.605-1.67 2.442-3.823 2.355-6.067 0-.065-.003-.108-.007-.155-.183-3.469-2.233-6.84-5.485-9.034-3.238-2.185-6.414-2.632-9.996-1.405l-.254.088-.164-.213c-3.522-4.582-8.836-7.21-14.58-7.21-.698 0-1.436.05-2.257.152l-.21.026-.131-.166c-5.67-7.157-14.136-11.262-23.227-11.262-10.391 0-19.843 5.319-25.284 14.227l-.204.332-.324-.216a18.394 18.394 0 0 0-25.355 4.871l-.19.274-.296-.155c-1.77-.945-3.622-1.42-5.492-1.42m104.54 20.87H206.774a9.814 9.814 0 0 1-7.211-3.168c-1.796-1.95-2.664-4.454-2.446-7.047.046-.555.134-1.135.262-1.716.846-3.868 3.69-7.213 7.423-8.732 3.447-1.402 7.003-1.264 10.299.398a19.142 19.142 0 0 1 25.874-5.011c5.608-8.936 15.193-14.257 25.72-14.257 9.25 0 17.872 4.146 23.684 11.383.77-.09 1.472-.133 2.14-.133 5.89 0 11.346 2.652 15.01 7.291 3.722-1.202 7.032-.696 10.405 1.579 3.445 2.322 5.618 5.912 5.813 9.603.006.056.009.12.009.19.095 2.435-.816 4.785-2.564 6.603a9.906 9.906 0 0 1-7.101 3.017" mask="url(#b)"/>
            <path fill="#FFF" d="M1244.839 28.297c-.46-6.835-3.27-13.538-8.491-18.758-9.91-9.91-25.145-11.223-36.483-3.971-6.93-6.744-18.301-6.99-25.502-.517a18.557 18.557 0 0 0-4.962 7.255c-3.567-.796-7.45.167-10.223 2.944-.036.036-.071.068-.106.104-4.52 4.637-.898 12.49 5.578 12.49h21.786c-.68 8.285 2.13 16.798 8.468 23.14 8.382 8.374 20.564 10.591 30.986 6.701a18.592 18.592 0 0 0 1.725 2.021c7.294 7.295 19.115 7.295 26.403 0 7.292-7.287 7.292-19.105 0-26.396a18.563 18.563 0 0 0-9.18-5.014" mask="url(#b)"/>
            <path fill="#5C8797" d="M1226.021 57.236l.168.225a17.95 17.95 0 0 0 1.691 1.98 18.173 18.173 0 0 0 12.938 5.36 18.16 18.16 0 0 0 12.933-5.36 18.161 18.161 0 0 0 5.36-12.932c0-4.884-1.903-9.478-5.36-12.933a18.216 18.216 0 0 0-8.993-4.913l-.275-.061-.019-.28c-.47-7.01-3.448-13.585-8.38-18.517-9.528-9.528-24.676-11.176-36.017-3.922l-.25.16-.214-.207c-6.768-6.583-17.978-6.811-24.989-.506a18.062 18.062 0 0 0-4.863 7.108l-.115.304-.317-.07c-3.6-.803-7.295.259-9.876 2.842l-.37-.161.267.262c-1.919 1.969-2.43 4.803-1.337 7.395 1.161 2.75 3.706 4.459 6.646 4.459h22.193l-.033.406c-.698 8.504 2.35 16.83 8.36 22.843 7.982 7.975 19.987 10.574 30.59 6.616l.262-.098zm14.797 8.316c-5.087 0-9.87-1.981-13.469-5.58a18.342 18.342 0 0 1-1.592-1.84c-10.806 3.918-22.994 1.235-31.118-6.883a29.652 29.652 0 0 1-8.608-23.03h-21.382c-3.196 0-6.077-1.93-7.337-4.918-1.213-2.875-.642-6.02 1.491-8.21l.072-.071a11.374 11.374 0 0 1 10.292-3.146 18.8 18.8 0 0 1 4.945-7.103c7.228-6.496 18.734-6.33 25.801.322 11.608-7.26 26.996-5.522 36.7 4.18 4.996 4.996 8.036 11.634 8.58 18.72a18.967 18.967 0 0 1 9.09 5.052 18.918 18.918 0 0 1 5.578 13.464c0 5.086-1.982 9.868-5.579 13.463a18.904 18.904 0 0 1-13.464 5.58z" mask="url(#b)"/>
            <path fill="#FFF" d="M1228.063 251.88l-28.582-.52c-1.94-8.278-9.282-14.516-18.17-14.679-4.729-.084-9.07 1.569-12.456 4.358-2.87-8.97-11.18-15.548-21.13-15.73-10.749-.195-19.869 7.16-22.35 17.177-8.618-.14-15.728 6.728-15.886 15.35-.154 8.63 6.717 15.762 15.353 15.916l102.79 1.863c6.556.121 11.97-5.096 12.086-11.654.12-6.553-5.099-11.963-11.655-12.08" mask="url(#b)"/>
            <path fill="#5C8797" d="M1125.116 242.859c-8.282 0-15.1 6.67-15.252 14.983-.149 8.415 6.573 15.384 14.985 15.535l102.79 1.863c3.053.029 5.98-1.085 8.191-3.217a11.418 11.418 0 0 0 3.514-8.068 11.414 11.414 0 0 0-3.219-8.187 11.43 11.43 0 0 0-8.069-3.513l-28.874-.526-.066-.283a18.633 18.633 0 0 0-30.022-10.117l-.427.352-.169-.527a22.244 22.244 0 0 0-21.194-15.474c-10.254 0-19.087 6.896-21.566 16.896l-.072.29-.298-.005a21.34 21.34 0 0 0-.252-.002m102.743 33.133l-.233-.002-102.79-1.863c-8.826-.159-15.879-7.469-15.722-16.298.16-8.711 7.295-15.702 15.97-15.72 2.657-10.182 11.72-17.179 22.22-17.179a22.993 22.993 0 0 1 21.738 15.481 19.513 19.513 0 0 1 12.276-4.105 19.382 19.382 0 0 1 18.46 14.684l28.292.515a12.165 12.165 0 0 1 8.594 3.743 12.16 12.16 0 0 1 3.43 8.72 12.162 12.162 0 0 1-3.744 8.595 12.158 12.158 0 0 1-8.49 3.429" mask="url(#b)"/>
            <path fill="#FFF" d="M411.339 510.023h126.717V211.419H411.339z" mask="url(#b)"/>
            <path fill="#5C8797" d="M411.714 509.648h125.967V211.794H411.714v297.854zm-.75.75h127.467V211.044H410.964v299.354z" mask="url(#b)"/>
            <path fill="#FFF" d="M411.339 239.209h126.717V211.42H411.339z" mask="url(#b)"/>
            <path fill="#5C8797" d="M411.714 238.834h125.967v-27.039H411.714v27.039zm-.75.75h127.467v-28.539H410.964v28.539z" mask="url(#b)"/>
            <path fill="#FFF" d="M428.03 211.419h70.398v-18.554H428.03z" mask="url(#b)"/>
            <path fill="#5C8797" d="M428.404 211.044h69.648V193.24h-69.648v17.804zm-.749.75h71.148V192.49h-71.148v19.304z" mask="url(#b)"/>
            <path fill="#FFF" d="M498.428 510.023h39.628V192.865h-39.628z" mask="url(#b)"/>
            <path fill="#5C8797" d="M498.803 509.648h38.878V193.24h-38.878v316.408zm-.75.75h40.378V192.49h-40.378v317.908z" mask="url(#b)"/>
            <path fill="#FFF" d="M411.339 243.082h87.089v-14.191h-87.089z" mask="url(#b)"/>
            <path fill="#5C8797" d="M411.714 242.707h86.339v-13.441h-86.339v13.441zm-.75.75h87.839v-14.941h-87.839v14.941z" mask="url(#b)"/>
            <path fill="#FFF" d="M411.339 272.735h87.089v-14.179h-87.089z" mask="url(#b)"/>
            <path fill="#5C8797" d="M411.714 272.36h86.339v-13.429h-86.339v13.429zm-.75.75h87.839v-14.929h-87.839v14.929z" mask="url(#b)"/>
            <path fill="#FFF" d="M411.339 302.396h87.089v-14.184h-87.089z" mask="url(#b)"/>
            <path fill="#5C8797" d="M411.714 302.021h86.339v-13.434h-86.339v13.434zm-.75.75h87.839v-14.934h-87.839v14.934z" mask="url(#b)"/>
            <path fill="#FFF" d="M411.339 332.051h87.089v-14.184h-87.089z" mask="url(#b)"/>
            <path fill="#5C8797" d="M411.714 331.676h86.339v-13.434h-86.339v13.434zm-.75.75h87.839v-14.934h-87.839v14.934z" mask="url(#b)"/>
            <path fill="#FFF" d="M411.339 361.711h87.089v-14.186h-87.089z" mask="url(#b)"/>
            <path fill="#5C8797" d="M411.714 361.336h86.339V347.9h-86.339v13.436zm-.75.75h87.839V347.15h-87.839v14.936z" mask="url(#b)"/>
            <path fill="#FFF" d="M411.339 391.369h87.089v-14.186h-87.089z" mask="url(#b)"/>
            <path fill="#5C8797" d="M411.714 390.994h86.339v-13.436h-86.339v13.436zm-.75.75h87.839v-14.936h-87.839v14.936z" mask="url(#b)"/>
            <path fill="#FFF" d="M411.339 421.032h87.089v-14.188h-87.089z" mask="url(#b)"/>
            <path fill="#5C8797" d="M411.714 420.657h86.339v-13.438h-86.339v13.438zm-.75.75h87.839v-14.938h-87.839v14.938z" mask="url(#b)"/>
            <path fill="#FFF" d="M411.339 450.683h87.089v-14.18h-87.089z" mask="url(#b)"/>
            <path fill="#5C8797" d="M411.714 450.308h86.339v-13.43h-86.339v13.43zm-.75.75h87.839v-14.93h-87.839v14.93z" mask="url(#b)"/>
            <path fill="#FFF" d="M411.339 480.349h87.089v-14.191h-87.089z" mask="url(#b)"/>
            <path fill="#5C8797" d="M411.714 479.974h86.339v-13.441h-86.339v13.441zm-.75.75h87.839v-14.941h-87.839v14.941z" mask="url(#b)"/>
            <path fill="#FFF" d="M411.339 510.001h87.089v-14.18h-87.089z" mask="url(#b)"/>
            <path fill="#5C8797" d="M411.714 509.626h86.339v-13.429h-86.339v13.429zm-.75.75h87.839v-14.929h-87.839v14.929z" mask="url(#b)"/>
            <path fill="#FFF" d="M498.428 243.079h39.628v-14.187h-39.628z" mask="url(#b)"/>
            <path fill="#5C8797" d="M498.803 242.704h38.878v-13.437h-38.878v13.437zm-.75.75h40.378v-14.937h-40.378v14.937z" mask="url(#b)"/>
            <path fill="#FFF" d="M498.428 272.722h39.628v-14.176h-39.628z" mask="url(#b)"/>
            <path fill="#5C8797" d="M498.803 272.347h38.878v-13.426h-38.878v13.426zm-.75.75h40.378v-14.926h-40.378v14.926z" mask="url(#b)"/>
            <path fill="#FFF" d="M498.428 302.376h39.628v-14.183h-39.628z" mask="url(#b)"/>
            <path fill="#5C8797" d="M498.803 302.001h38.878v-13.433h-38.878v13.433zm-.75.75h40.378v-14.933h-40.378v14.933z" mask="url(#b)"/>
            <path fill="#FFF" d="M498.428 332.021h39.628V317.84h-39.628z" mask="url(#b)"/>
            <path fill="#5C8797" d="M498.803 331.646h38.878v-13.431h-38.878v13.431zm-.75.75h40.378v-14.931h-40.378v14.931z" mask="url(#b)"/>
            <path fill="#FFF" d="M498.428 361.673h39.628V347.49h-39.628z" mask="url(#b)"/>
            <path fill="#5C8797" d="M498.803 361.298h38.878v-13.433h-38.878v13.433zm-.75.75h40.378v-14.933h-40.378v14.933z" mask="url(#b)"/>
            <path fill="#FFF" d="M498.428 391.321h39.628v-14.183h-39.628z" mask="url(#b)"/>
            <path fill="#5C8797" d="M498.803 390.946h38.878v-13.433h-38.878v13.433zm-.75.75h40.378v-14.933h-40.378v14.933z" mask="url(#b)"/>
            <path fill="#FFF" d="M498.428 420.976h39.628V406.79h-39.628z" mask="url(#b)"/>
            <path fill="#5C8797" d="M498.803 420.601h38.878v-13.436h-38.878v13.436zm-.75.75h40.378v-14.936h-40.378v14.936z" mask="url(#b)"/>
            <path fill="#FFF" d="M498.428 450.619h39.628v-14.177h-39.628z" mask="url(#b)"/>
            <path fill="#5C8797" d="M498.803 450.244h38.878v-13.427h-38.878v13.427zm-.75.75h40.378v-14.927h-40.378v14.927z" mask="url(#b)"/>
            <path fill="#FFF" d="M498.428 480.272h39.628v-14.183h-39.628z" mask="url(#b)"/>
            <path fill="#5C8797" d="M498.803 479.897h38.878v-13.433h-38.878v13.433zm-.75.75h40.378v-14.933h-40.378v14.933z" mask="url(#b)"/>
            <path fill="#FFF" d="M498.428 509.919h39.628v-14.177h-39.628z" mask="url(#b)"/>
            <path fill="#5C8797" d="M498.803 509.544h38.878v-13.427h-38.878v13.427zm-.75.75h40.378v-14.927h-40.378v14.927z" mask="url(#b)"/>
            <path fill="#FFF" d="M1233.035 452.171l-13.529 7.808v26.298l13.529 7.81 13.529-7.81v-26.298z" mask="url(#b)"/>
            <path fill="#5C8797" d="M1219.88 486.06l13.155 7.595 13.155-7.595v-25.864l-13.155-7.592-13.154 7.592v25.864zm13.155 8.46l-.187-.107-13.717-7.919v-26.732l13.904-8.023.188.107 13.717 7.916v26.732l-13.905 8.026z" mask="url(#b)"/>
            <path fill="#FFF" d="M1231.025 467.901l2.014-1.506 2.007 1.506v42.123h-4.02z" mask="url(#b)"/>
            <path fill="#5C8797" d="M1231.4 509.649h3.271v-41.561l-1.632-1.224-1.639 1.224v41.561zm4.021.75h-4.77v-42.686l2.388-1.787 2.382 1.787v42.686z" mask="url(#b)"/>
            <path fill="#057E6A" d="M606.907 408.835h21.109v-11.183h-21.109zM632.727 392.457h21.112v-11.182h-21.112z" mask="url(#b)"/>
            <path fill="#FFF" d="M580.971 337.917h97.71v-9.387h-97.71z" mask="url(#b)"/>
            <path fill="#5C8797" d="M581.346 337.542h96.96v-8.637h-96.96v8.637zm-.75.75h98.46v-10.137h-98.46v10.137z" mask="url(#b)"/>
            <path fill="#FFF" d="M576.243 510.023h98.771V338.029h-98.771z" mask="url(#b)"/>
            <path fill="#5C8797" d="M576.618 509.648h98.021V338.404h-98.021v171.244zm-.749.75h99.521V337.654h-99.521v172.744z" mask="url(#b)"/>
            <path fill="#FFF" d="M576.243 510.023h82.332V337.917h-82.332z" mask="url(#b)"/>
            <path fill="#5C8797" d="M576.618 509.648H658.2V338.292h-81.582v171.356zm-.75.75h83.082V337.542h-83.082v172.856z" mask="url(#b)"/>
            <path fill="#FFF" d="M632.157 498.515h22.24V345.343h-22.24z" mask="url(#b)"/>
            <path fill="#5C8797" d="M632.532 498.14h21.49V345.718h-21.49V498.14zm-.75.75h22.99V344.968h-22.99V498.89z" mask="url(#b)"/>
            <path fill="#FFF" d="M606.344 498.515h22.227V345.359h-22.227z" mask="url(#b)"/>
            <path fill="#5C8797" d="M606.719 498.14h21.477V345.734h-21.477V498.14zm-.751.75h22.977V344.984h-22.977V498.89z" mask="url(#b)"/>
            <path fill="#FFF" d="M580.523 498.515h22.23V345.359h-22.23z" mask="url(#b)"/>
            <path fill="#5C8797" d="M580.898 498.14h21.48V345.734h-21.48V498.14zm-.749.75h22.98V344.984h-22.98V498.89z" mask="url(#b)"/>
            <path fill="#FFF" d="M570.979 337.917h92.08v-9.387h-92.08z" mask="url(#b)"/>
            <path fill="#5C8797" d="M571.354 337.542h91.33v-8.637h-91.33v8.637zm-.75.75h92.83v-10.137h-92.83v10.137z" mask="url(#b)"/>
            <path fill="#FFF" d="M1073.399 373.925h43.661v-13.146h-43.661z" mask="url(#b)"/>
            <path fill="#5C8797" d="M1073.774 373.55h42.911v-12.396h-42.911v12.396zm-.75.75h44.411v-13.896h-44.411V374.3z" mask="url(#b)"/>
            <path fill="#FFF" d="M1105.038 373.925h12.022v-13.146h-12.022z" mask="url(#b)"/>
            <path fill="#5C8797" d="M1105.413 373.55h11.272v-12.396h-11.272v12.396zm-.75.75h12.772v-13.896h-12.772V374.3zM166.628 244.814h16.419v-.75h-16.419zM1036.353 269.825h16.419v-.75h-16.419zM911.097 269.825h31.831v-.75h-31.831zM92.004 348.539h16.419v-.75H92.004zM273.921 217.896h.75V190.53h-.75zM598.141 225.104h.75v-66.779h-.75zM715.974 383.552h.75v-52.026h-.75zM1015.537 273.367h.75v-28.928h-.75z" mask="url(#b)"/>
            <path fill="#FFF" d="M79.262 510.023h125.754V408.145H79.262z" mask="url(#b)"/>
            <path fill="#5C8797" d="M79.637 509.648h125.004V408.52H79.637v101.128zm-.75.75h126.504V407.77H78.887v102.628z" mask="url(#b)"/>
            <path fill="#FFF" d="M205.015 510.023h25.594V408.142h-25.594z" mask="url(#b)"/>
            <path fill="#5C8797" d="M205.391 509.648h24.844V408.517h-24.844v101.131zm-.751.75h26.344V407.767H204.64v102.631z" mask="url(#b)"/>
            <path fill="#FFF" d="M79.262 510.023h125.754v-47.278H79.262z" mask="url(#b)"/>
            <path fill="#FFF" d="M136.093 509.593v-27.412H90.058v27.412" mask="url(#b)"/>
            <path fill="#5C8797" d="M136.468 510.024h-.75v-27.468H90.433v27.468h-.75v-28.218h46.785z" mask="url(#b)"/>
            <path fill="#FFF" d="M192.492 509.593v-27.412H146.464v27.412" mask="url(#b)"/>
            <path fill="#5C8797" d="M192.867 510.024h-.75v-27.468H146.84v27.468h-.75v-28.218h46.778z" mask="url(#b)"/>
            <path fill="#FFF" d="M168.152 422.645h8.513v-14.503h-8.513z" mask="url(#b)"/>
            <path fill="#5C8797" d="M168.527 422.27h7.763v-13.753h-7.763v13.753zm-.75.75h9.263v-15.253h-9.263v15.253z" mask="url(#b)"/>
            <path fill="#FFF" d="M103.458 510.025h9.613v-19.206h-9.613z" mask="url(#b)"/>
            <path fill="#5C8797" d="M103.833 509.65h8.863v-18.456h-8.863v18.456zm-.75.75h10.363v-19.956h-10.363V510.4z" mask="url(#b)"/>
            <path fill="#FFF" d="M113.071 510.025h9.619v-19.206h-9.619z" mask="url(#b)"/>
            <path fill="#5C8797" d="M113.446 509.65h8.869v-18.456h-8.869v18.456zm-.75.75h10.369v-19.956h-10.369V510.4z" mask="url(#b)"/>
            <path fill="#FFF" d="M159.86 510.025h9.617v-19.206h-9.617z" mask="url(#b)"/>
            <path fill="#5C8797" d="M160.235 509.65h8.867v-18.456h-8.867v18.456zm-.75.75h10.367v-19.956h-10.367V510.4z" mask="url(#b)"/>
            <path fill="#FFF" d="M169.478 510.025h9.613v-19.206h-9.613z" mask="url(#b)"/>
            <path fill="#5C8797" d="M169.852 509.65h8.863v-18.456h-8.863v18.456zm-.749.75h10.363v-19.956h-10.363V510.4z" mask="url(#b)"/>
            <path fill="#FFF" d="M79.262 470.141h125.754v-7.395H79.262z" mask="url(#b)"/>
            <path fill="#5C8797" d="M79.637 469.766h125.004v-6.645H79.637v6.645zm-.75.75h126.504v-8.145H78.887v8.145z" mask="url(#b)"/>
            <path fill="#FFF" d="M79.262 449.815h125.755H79.262z" mask="url(#b)"/>
            <path fill="#5C8797" d="M79.261 450.191h125.754v-.75H79.261z" mask="url(#b)"/>
            <path fill="#FFF" d="M79.262 436.063h125.755H79.262z" mask="url(#b)"/>
            <path fill="#5C8797" d="M79.261 436.439h125.754v-.75H79.261z" mask="url(#b)"/>
            <path fill="#FFF" d="M79.262 422.644h125.755H79.262z" mask="url(#b)"/>
            <path fill="#5C8797" d="M79.261 423.021h125.754v-.75H79.261z" mask="url(#b)"/>
            <path fill="#FFF" d="M205.016 449.815h25.594-25.595z" mask="url(#b)"/>
            <path fill="#5C8797" d="M205.015 450.191h25.595v-.75h-25.595z" mask="url(#b)"/>
            <path fill="#FFF" d="M205.015 470.141h25.594v-7.395h-25.594z" mask="url(#b)"/>
            <path fill="#5C8797" d="M205.391 469.766h24.844v-6.645h-24.844v6.645zm-.751.75h26.344v-8.145H204.64v8.145z" mask="url(#b)"/>
            <path fill="#FFF" d="M205.016 436.063h25.594-25.595z" mask="url(#b)"/>
            <path fill="#5C8797" d="M205.015 436.439h25.595v-.75h-25.595z" mask="url(#b)"/>
            <path fill="#FFF" d="M205.016 422.644h25.594-25.595z" mask="url(#b)"/>
            <path fill="#5C8797" d="M205.015 423.021h25.595v-.75h-25.595z" mask="url(#b)"/>
            <path fill="#FFF" d="M775.738 510.023h121.125V184.201H775.738z" mask="url(#b)"/>
            <path fill="#5C8797" d="M776.113 509.614h120.375V184.576H776.113v325.038zm-.75.75h121.875V183.826H775.363v326.538z" mask="url(#b)"/>
            <path fill="#FFF" d="M775.738 221.396h121.125v-37.193H775.738z" mask="url(#b)"/>
            <path fill="#5C8797" d="M776.113 221.021h120.375v-36.443H776.113v36.443zm-.75.75h121.875v-37.943H775.363v37.943z" mask="url(#b)"/>
            <path fill="#FFF" d="M791.695 184.201h67.29v-24.834h-67.29z" mask="url(#b)"/>
            <path fill="#5C8797" d="M792.07 183.826h66.54v-24.084h-66.54v24.084zm-.75.75h68.04v-25.584h-68.04v25.584z" mask="url(#b)"/>
            <path fill="#FFF" d="M858.985 509.989h37.878V159.366h-37.878z" mask="url(#b)"/>
            <path fill="#5C8797" d="M859.36 509.614h37.128V159.741H859.36v349.873zm-.75.75h38.628V158.991H858.61v351.373z" mask="url(#b)"/>
            <path fill="#FFF" d="M775.738 221.396h83.247v-13.812h-83.247z" mask="url(#b)"/>
            <path fill="#5C8797" d="M776.113 221.021h82.497v-13.062h-82.497v13.062zm-.75.75h83.997v-14.562h-83.997v14.562z" mask="url(#b)"/>
            <path fill="#FFF" d="M775.738 250.249h83.247v-13.798h-83.247z" mask="url(#b)"/>
            <path fill="#5C8797" d="M776.113 249.874h82.497v-13.048h-82.497v13.048zm-.75.75h83.997v-14.548h-83.997v14.548z" mask="url(#b)"/>
            <path fill="#FFF" d="M775.738 279.107h83.247v-13.801h-83.247z" mask="url(#b)"/>
            <path fill="#5C8797" d="M776.113 278.732h82.497v-13.051h-82.497v13.051zm-.75.75h83.997v-14.551h-83.997v14.551z" mask="url(#b)"/>
            <path fill="#FFF" d="M775.738 307.963h83.247v-13.797h-83.247z" mask="url(#b)"/>
            <path fill="#5C8797" d="M776.113 307.588h82.497v-13.047h-82.497v13.047zm-.75.75h83.997v-14.547h-83.997v14.547z" mask="url(#b)"/>
            <path fill="#FFF" d="M775.738 336.828h83.247v-13.804h-83.247z" mask="url(#b)"/>
            <path fill="#5C8797" d="M776.113 336.453h82.497v-13.054h-82.497v13.054zm-.75.75h83.997v-14.554h-83.997v14.554z" mask="url(#b)"/>
            <path fill="#FFF" d="M775.738 365.687h83.247v-13.804h-83.247z" mask="url(#b)"/>
            <path fill="#5C8797" d="M776.113 365.312h82.497v-13.054h-82.497v13.054zm-.75.75h83.997v-14.554h-83.997v14.554z" mask="url(#b)"/>
            <path fill="#FFF" d="M775.738 394.547h83.247v-13.805h-83.247z" mask="url(#b)"/>
            <path fill="#5C8797" d="M776.113 394.172h82.497v-13.055h-82.497v13.055zm-.75.75h83.997v-14.555h-83.997v14.555z" mask="url(#b)"/>
            <path fill="#FFF" d="M775.738 423.403h83.247v-13.796h-83.247z" mask="url(#b)"/>
            <path fill="#5C8797" d="M776.113 423.028h82.497v-13.046h-82.497v13.046zm-.75.75h83.997v-14.546h-83.997v14.546z" mask="url(#b)"/>
            <path fill="#FFF" d="M775.738 452.27h83.247v-13.808h-83.247z" mask="url(#b)"/>
            <path fill="#5C8797" d="M776.113 451.895h82.497v-13.058h-82.497v13.058zm-.75.75h83.997v-14.558h-83.997v14.558z" mask="url(#b)"/>
            <path fill="#FFF" d="M775.738 481.123h83.247v-13.797h-83.247z" mask="url(#b)"/>
            <path fill="#5C8797" d="M776.113 480.748h82.497v-13.047h-82.497v13.047zm-.75.75h83.997v-14.547h-83.997v14.547z" mask="url(#b)"/>
            <path fill="#FFF" d="M775.738 509.989h83.247v-13.808h-83.247z" mask="url(#b)"/>
            <path fill="#5C8797" d="M776.113 509.614h82.497v-13.058h-82.497v13.058zm-.75.75h83.997v-14.558h-83.997v14.558z" mask="url(#b)"/>
            <path fill="#FFF" d="M858.985 221.396h37.878v-13.812h-37.878z" mask="url(#b)"/>
            <path fill="#5C8797" d="M859.36 221.021h37.128v-13.062H859.36v13.062zm-.75.75h38.628v-14.562H858.61v14.562z" mask="url(#b)"/>
            <path fill="#FFF" d="M858.985 250.249h37.878v-13.798h-37.878z" mask="url(#b)"/>
            <path fill="#5C8797" d="M859.36 249.874h37.128v-13.048H859.36v13.048zm-.75.75h38.628v-14.548H858.61v14.548z" mask="url(#b)"/>
            <path fill="#FFF" d="M858.985 279.107h37.878v-13.801h-37.878z" mask="url(#b)"/>
            <path fill="#5C8797" d="M859.36 278.732h37.128v-13.051H859.36v13.051zm-.75.75h38.628v-14.551H858.61v14.551z" mask="url(#b)"/>
            <path fill="#FFF" d="M858.985 307.963h37.878v-13.797h-37.878z" mask="url(#b)"/>
            <path fill="#5C8797" d="M859.36 307.588h37.128v-13.047H859.36v13.047zm-.75.75h38.628v-14.547H858.61v14.547z" mask="url(#b)"/>
            <path fill="#FFF" d="M858.985 336.828h37.878v-13.804h-37.878z" mask="url(#b)"/>
            <path fill="#5C8797" d="M859.36 336.453h37.128v-13.054H859.36v13.054zm-.75.75h38.628v-14.554H858.61v14.554z" mask="url(#b)"/>
            <path fill="#FFF" d="M858.985 365.687h37.878v-13.804h-37.878z" mask="url(#b)"/>
            <path fill="#5C8797" d="M859.36 365.312h37.128v-13.054H859.36v13.054zm-.75.75h38.628v-14.554H858.61v14.554z" mask="url(#b)"/>
            <path fill="#FFF" d="M858.985 394.547h37.878v-13.805h-37.878z" mask="url(#b)"/>
            <path fill="#5C8797" d="M859.36 394.172h37.128v-13.055H859.36v13.055zm-.75.75h38.628v-14.555H858.61v14.555z" mask="url(#b)"/>
            <path fill="#FFF" d="M858.985 423.403h37.878v-13.796h-37.878z" mask="url(#b)"/>
            <path fill="#5C8797" d="M859.36 423.028h37.128v-13.046H859.36v13.046zm-.75.75h38.628v-14.546H858.61v14.546z" mask="url(#b)"/>
            <path fill="#FFF" d="M858.985 452.27h37.878v-13.808h-37.878z" mask="url(#b)"/>
            <path fill="#5C8797" d="M859.36 451.895h37.128v-13.058H859.36v13.058zm-.75.75h38.628v-14.558H858.61v14.558z" mask="url(#b)"/>
            <path fill="#FFF" d="M858.985 481.123h37.878v-13.797h-37.878z" mask="url(#b)"/>
            <path fill="#5C8797" d="M859.36 480.748h37.128v-13.047H859.36v13.047zm-.75.75h38.628v-14.547H858.61v14.547z" mask="url(#b)"/>
            <path fill="#FFF" d="M858.985 509.989h37.878v-13.808h-37.878z" mask="url(#b)"/>
            <path fill="#5C8797" d="M859.36 509.614h37.128v-13.058H859.36v13.058zm-.75.75h38.628v-14.558H858.61v14.558z" mask="url(#b)"/>
            <path fill="#FFF" d="M247.302 510.023h87.943V315.35h-87.943z" mask="url(#b)"/>
            <path fill="#5C8797" d="M247.677 509.648h87.193V315.725h-87.193v193.923zm-.75.75h88.693V314.975h-88.693v195.423z" mask="url(#b)"/>
            <path fill="#FFF" d="M335.295 510.023h33.789V315.35h-33.789z" mask="url(#b)"/>
            <path fill="#5C8797" d="M335.67 509.648h33.039V315.725H335.67v193.923zm-.75.75h34.539V314.975H334.92v195.423z" mask="url(#b)"/>
            <path fill="#FFF" d="M247.302 480.001h60.111V347.808h-60.111z" mask="url(#b)"/>
            <path fill="#5C8797" d="M247.677 479.626h59.361V348.183h-59.361v131.443zm-.75.75h60.861V347.433h-60.861v132.943z" mask="url(#b)"/>
            <path fill="#FFF" d="M257.318 366.691h10.021v-18.885h-10.021z" mask="url(#b)"/>
            <path fill="#5C8797" d="M257.693 366.316h9.271v-18.135h-9.271v18.135zm-.749.75h10.771v-19.635h-10.771v19.635z" mask="url(#b)"/>
            <path fill="#FFF" d="M287.376 366.691h10.021v-18.885h-10.021z" mask="url(#b)"/>
            <path fill="#5C8797" d="M287.751 366.316h9.271v-18.135h-9.271v18.135zm-.75.75h10.771v-19.635h-10.771v19.635z" mask="url(#b)"/>
            <path fill="#FFF" d="M297.397 366.691h10.017v-18.885h-10.017z" mask="url(#b)"/>
            <path fill="#5C8797" d="M297.772 366.316h9.267v-18.135h-9.267v18.135zm-.75.75h10.767v-19.635h-10.767v19.635z" mask="url(#b)"/>
            <path fill="#FFF" d="M277.355 366.691h10.021v-18.885h-10.021z" mask="url(#b)"/>
            <path fill="#5C8797" d="M277.73 366.316h9.271v-18.135h-9.271v18.135zm-.75.75h10.771v-19.635H276.98v19.635z" mask="url(#b)"/>
            <path fill="#FFF" d="M277.356 359.687v-11.88h-10.018v18.891h10.018z" mask="url(#b)"/>
            <path fill="#5C8797" d="M267.714 366.323h9.268v-18.141h-9.268v18.141zm-.751.75h10.768v-19.641h-10.768v19.641z" mask="url(#b)"/>
            <path fill="#FFF" d="M247.302 480.001h60.111v-18.882h-60.111z" mask="url(#b)"/>
            <path fill="#5C8797" d="M247.677 479.626h59.361v-18.132h-59.361v18.132zm-.75.75h60.861v-19.632h-60.861v19.632z" mask="url(#b)"/>
            <path fill="#FFF" d="M297.395 404.466h10.018v-18.887h-10.018z" mask="url(#b)"/>
            <path fill="#5C8797" d="M297.77 404.09h9.268v-18.137h-9.268v18.137zm-.75.75h10.768v-19.637H297.02v19.637z" mask="url(#b)"/>
            <path fill="#FFF" d="M267.338 404.466h10.017v-18.887h-10.017z" mask="url(#b)"/>
            <path fill="#5C8797" d="M267.714 404.09h9.267v-18.137h-9.267v18.137zm-.751.75h10.767v-19.637h-10.767v19.637z" mask="url(#b)"/>
            <path fill="#FFF" d="M257.32 404.466h10.017v-18.887H257.32z" mask="url(#b)"/>
            <path fill="#5C8797" d="M257.695 404.09h9.267v-18.137h-9.267v18.137zm-.75.75h10.767v-19.637h-10.767v19.637z" mask="url(#b)"/>
            <path fill="#FFF" d="M247.301 366.696h10.017V347.81h-10.017z" mask="url(#b)"/>
            <path fill="#5C8797" d="M247.677 366.321h9.267v-18.136h-9.267v18.136zm-.751.75h10.767v-19.636h-10.767v19.636z" mask="url(#b)"/>
            <path fill="#FFF" d="M247.301 442.234h10.017v-18.885h-10.017z" mask="url(#b)"/>
            <path fill="#5C8797" d="M247.677 441.859h9.267v-18.135h-9.267v18.135zm-.751.75h10.767v-19.635h-10.767v19.635z" mask="url(#b)"/>
            <path fill="#FFF" d="M247.301 404.466h10.017v-18.887h-10.017z" mask="url(#b)"/>
            <path fill="#5C8797" d="M247.677 404.09h9.267v-18.137h-9.267v18.137zm-.751.75h10.767v-19.637h-10.767v19.637z" mask="url(#b)"/>
            <path fill="#FFF" d="M277.355 404.466h10.021v-18.887h-10.021z" mask="url(#b)"/>
            <path fill="#5C8797" d="M277.73 404.09h9.271v-18.137h-9.271v18.137zm-.75.75h10.771v-19.637H276.98v19.637z" mask="url(#b)"/>
            <path fill="#FFF" d="M287.376 392.59v11.874h10.02V385.58h-10.02z" mask="url(#b)"/>
            <path fill="#5C8797" d="M287.751 404.089h9.271v-18.135h-9.271v18.135zm-.75.75h10.771v-19.635h-10.771v19.635z" mask="url(#b)"/>
            <path fill="#FFF" d="M297.397 442.231h10.017v-18.879h-10.017z" mask="url(#b)"/>
            <path fill="#5C8797" d="M297.772 441.856h9.267v-18.129h-9.267v18.129zm-.75.75h10.767v-19.629h-10.767v19.629z" mask="url(#b)"/>
            <path fill="#FFF" d="M277.355 442.231h10.023v-18.879h-10.023z" mask="url(#b)"/>
            <path fill="#5C8797" d="M277.73 441.856h9.273v-18.129h-9.273v18.129zm-.749.75h10.773v-19.629h-10.773v19.629z" mask="url(#b)"/>
            <path fill="#FFF" d="M287.379 442.231h10.019v-18.879h-10.019z" mask="url(#b)"/>
            <path fill="#5C8797" d="M287.754 441.856h9.269v-18.129h-9.269v18.129zm-.751.75h10.769v-19.629h-10.769v19.629z" mask="url(#b)"/>
            <path fill="#FFF" d="M267.339 442.231h10.017v-18.879h-10.017z" mask="url(#b)"/>
            <path fill="#5C8797" d="M267.714 441.856h9.267v-18.129h-9.267v18.129zm-.751.75h10.767v-19.629h-10.767v19.629z" mask="url(#b)"/>
            <path fill="#FFF" d="M257.318 442.231h10.021v-18.882h-10.021z" mask="url(#b)"/>
            <path fill="#5C8797" d="M257.693 441.856h9.271v-18.132h-9.271v18.132zm-.749.75h10.771v-19.632h-10.771v19.632z" mask="url(#b)"/>
            <path fill="#FFF" d="M257.318 442.231h10.021v-18.879h-10.021z" mask="url(#b)"/>
            <path fill="#5C8797" d="M257.693 441.856h9.271v-18.129h-9.271v18.129zm-.749.75h10.771v-19.629h-10.771v19.629z" mask="url(#b)"/>
            <path fill="#FFF" d="M345.311 480.001h23.773V347.726h-23.773z" mask="url(#b)"/>
            <path fill="#5C8797" d="M345.685 479.626h23.023V348.101h-23.023v131.525zm-.749.75h24.523V347.351h-24.523v133.025zM421.951 258.171h8.432v-14.715h-8.432v14.715zm-.75.75h9.932v-16.215h-9.932v16.215z" mask="url(#b)"/>
            <path fill="#FFF" d="M465.478 288.211h9.182v-15.465h-9.182z" mask="url(#b)"/>
            <path fill="#5C8797" d="M465.853 287.836h8.432v-14.715h-8.432v14.715zm-.75.75h9.932v-16.215h-9.932v16.215zM32.1 226.638h29.967v-.75H32.1zM1117.056 400.766h23.785v-11.969h-23.785v11.969zm-.75.75h25.285v-13.469h-25.285v13.469z" mask="url(#b)"/>
            <path fill="#FFF" d="M595.444 183.482h6.143v-6.143h-6.143z" mask="url(#b)"/>
            <path fill="#5C8797" d="M595.819 183.107h5.393v-5.393h-5.393v5.393zm-.75.75h6.893v-6.893h-6.893v6.893zM859.36 236.077h37.128V221.77H859.36v14.307zm-.75.75h38.628V221.02H858.61v15.807zM1073.262 353.11h.75v-16.992h-.75zM810.748 438.087h12.901v-14.02h-12.901v14.02zm-.75.75h14.401v-15.52h-14.401v15.52zM187.903 254.205h47.934v-9.391h-47.934v9.391zm-.75.75h49.434v-10.891h-49.434v10.891zM79.637 509.648h125.004V463.12H79.637v46.528zm-.75.75h126.504V462.37H78.887v48.028z" mask="url(#b)"/>
        </g>
        <path fill="#B0CDD9" d="M0 592.085l.697.277 2.481-6.223-.696-.277zM5.994 592.085l.696.277 2.482-6.223-.697-.277zM11.986 592.085l.697.277 2.483-6.223-.697-.277zM17.981 592.085l.696.277 2.482-6.223-.696-.277zM23.974 592.085l.697.277 2.482-6.223-.697-.277zM29.968 592.085l.697.277 2.481-6.223-.696-.277zM35.962 592.085l.697.277 2.482-6.223-.697-.277zM41.955 592.085l.697.277 2.482-6.223-.697-.277zM47.948 592.085l.696.277 2.483-6.223-.696-.277zM53.941 592.085l.697.277 2.483-6.223-.696-.277zM59.936 592.085l.697.277 2.481-6.223-.696-.277zM65.93 592.085l.695.277 2.484-6.223-.697-.277zM71.923 592.085l.697.277 2.483-6.223-.696-.277zM77.918 592.085l.697.277 2.48-6.223-.695-.277zM83.912 592.085l.695.277 2.483-6.223-.698-.277zM89.904 592.085l.697.277 2.483-6.223-.697-.277zM95.899 592.085l.696.277 2.482-6.223-.696-.277zM101.892 592.085l.697.277 2.482-6.223-.697-.277zM107.885 592.085l.697.277 2.483-6.223-.697-.277zM113.879 592.085l.697.277 2.483-6.223-.697-.277zM119.873 592.085l.697.277 2.482-6.223-.697-.277zM125.866 592.085l.696.277 2.484-6.223-.697-.277zM131.86 592.085l.697.277 2.482-6.223-.696-.277zM137.854 592.085l.697.277 2.482-6.223-.697-.277zM143.848 592.085l.696.277 2.483-6.223-.697-.277zM149.841 592.085l.696.277 2.483-6.223-.696-.277zM155.835 592.085l.697.277 2.481-6.223-.696-.277zM161.829 592.085l.697.277 2.481-6.223-.696-.277zM167.822 592.085l.696.277 2.483-6.223-.697-.277zM173.816 592.085l.696.277 2.482-6.223-.697-.277zM179.81 592.085l.696.277 2.482-6.223-.696-.277zM185.802 592.085l.697.277 2.483-6.223-.697-.277zM191.796 592.085l.697.277 2.483-6.223-.697-.277zM197.791 592.085l.696.277 2.482-6.223-.697-.277zM203.783 592.085l.697.277 2.483-6.223-.697-.277zM209.777 592.085l.697.277 2.482-6.223-.696-.277zM215.771 592.085l.697.277 2.482-6.223-.697-.277zM221.765 592.085l.697.277 2.482-6.223-.697-.277zM227.758 592.085l.696.277 2.483-6.223-.696-.277zM233.752 592.085l.697.277 2.482-6.223-.697-.277zM239.746 592.085l.697.277 2.481-6.223-.696-.277zM245.74 592.085l.696.277 2.483-6.223-.697-.277zM251.733 592.085l.697.277 2.483-6.223-.698-.277zM257.727 592.085l.698.277 2.48-6.223-.696-.277zM263.719 592.085l.697.277 2.484-6.223-.697-.277zM269.714 592.085l.697.277 2.484-6.223-.698-.277zM275.708 592.085l.697.277 2.483-6.223-.698-.277zM281.7 592.085l.698.277 2.484-6.223-.698-.277zM287.695 592.085l.698.277 2.482-6.223-.698-.277zM293.689 592.085l.697.277 2.482-6.223-.698-.277zM299.682 592.085l.697.277 2.483-6.223-.698-.277zM305.675 592.085l.698.277 2.483-6.223-.697-.277zM311.67 592.085l.696.277 2.483-6.223-.697-.277zM317.664 592.085l.697.277 2.483-6.223-.698-.277zM323.657 592.085l.697.277 2.483-6.223-.698-.277zM329.65 592.085l.697.277 2.484-6.223-.698-.277zM335.645 592.085l.698.277 2.481-6.223-.698-.277zM341.637 592.085l.698.277 2.483-6.223-.698-.277zM347.631 592.085l.698.277 2.482-6.223-.698-.277zM353.625 592.085l.697.277 2.483-6.223-.698-.277zM359.618 592.085l.697.277 2.483-6.223-.697-.277zM365.611 592.085l.699.277 2.483-6.223-.697-.277zM371.606 592.085l.697.277 2.483-6.223-.697-.277zM377.6 592.085l.696.277 2.485-6.223-.699-.277zM383.594 592.085l.697.277 2.483-6.223-.699-.277zM389.587 592.085l.697.277 2.484-6.223-.698-.277zM395.58 592.085l.699.277 2.483-6.223-.698-.277zM401.574 592.085l.698.277 2.483-6.223-.698-.277zM407.569 592.085l.697.277 2.482-6.223-.698-.277zM413.56 592.085l.699.277 2.483-6.223-.697-.277zM419.555 592.085l.697.277 2.483-6.223-.697-.277zM425.55 592.085l.697.277 2.483-6.223-.698-.277zM431.543 592.085l.697.277 2.484-6.223-.698-.277zM437.536 592.085l.697.277 2.484-6.223-.698-.277zM443.53 592.085l.699.277 2.48-6.223-.697-.277zM449.523 592.085l.697.277 2.484-6.223-.698-.277zM455.517 592.085l.698.277 2.482-6.223-.698-.277zM461.511 592.085l.698.277 2.482-6.223-.698-.277zM467.504 592.085l.698.277 2.483-6.223-.697-.277zM473.497 592.085l.698.277 2.483-6.223-.697-.277zM479.492 592.085l.697.277 2.483-6.223-.698-.277zM485.485 592.085l.697.277 2.484-6.223-.698-.277zM491.48 592.085l.697.277 2.482-6.223-.698-.277zM497.473 592.085l.697.277 2.483-6.223-.698-.277zM503.466 592.085l.697.277 2.484-6.223-.698-.277zM509.46 592.085l.696.277 2.484-6.223-.698-.277zM515.453 592.085l.698.277 2.483-6.223-.697-.277zM521.447 592.085l.697.277 2.484-6.223-.697-.277zM527.44 592.085l.698.277 2.482-6.223-.697-.277zM533.435 592.085l.697.277 2.483-6.223-.698-.277zM539.428 592.085l.697.277 2.485-6.223-.698-.277zM545.423 592.085l.697.277 2.482-6.223-.697-.277zM551.416 592.085l.698.277 2.483-6.223-.698-.277zM557.41 592.085l.697.277 2.483-6.223-.698-.277zM563.404 592.085l.698.277 2.48-6.223-.697-.277zM569.397 592.085l.698.277 2.482-6.223-.697-.277zM575.39 592.085l.698.277 2.483-6.223-.697-.277zM581.385 592.085l.697.277 2.483-6.223-.698-.277zM587.378 592.085l.697.277 2.484-6.223-.698-.277zM593.37 592.085l.698.277 2.484-6.223-.698-.277zM599.366 592.085l.698.277 2.48-6.223-.697-.277zM605.359 592.085l.698.277 2.482-6.223-.698-.277zM611.352 592.085l.698.277 2.483-6.223-.698-.277zM617.346 592.085l.697.277 2.483-6.223-.698-.277zM623.34 592.085l.696.277 2.484-6.223-.697-.277zM629.332 592.085l.697.277 2.484-6.223-.697-.277zM635.328 592.085l.697.277 2.481-6.223-.697-.277zM641.321 592.085l.697.277 2.483-6.223-.698-.277zM647.314 592.085l.697.277 2.484-6.223-.698-.277zM653.308 592.085l.698.277 2.482-6.223-.698-.277zM659.301 592.085l.698.277 2.483-6.223-.698-.277zM665.294 592.085l.698.277 2.483-6.223-.698-.277zM671.288 592.085l.698.277 2.483-6.223-.697-.277zM677.282 592.085l.697.277 2.483-6.223-.697-.277zM683.275 592.085l.697.277 2.485-6.223-.697-.277zM689.27 592.085l.697.277 2.484-6.223-.698-.277zM695.264 592.085l.697.277 2.483-6.223-.697-.277zM701.258 592.085l.697.277 2.482-6.223-.697-.277zM707.251 592.085l.698.277 2.483-6.223-.698-.277zM713.245 592.085l.698.277 2.482-6.223-.698-.277zM719.239 592.085l.698.277 2.482-6.223-.698-.277zM725.232 592.085l.698.277 2.483-6.223-.697-.277zM731.225 592.085l.698.277 2.483-6.223-.697-.277zM737.219 592.085l.697.277 2.482-6.223-.697-.277zM743.211 592.085l.698.277 2.484-6.223-.698-.277zM749.207 592.085l.697.277 2.482-6.223-.698-.277zM755.2 592.085l.698.277 2.482-6.223-.698-.277zM761.194 592.085l.698.277 2.482-6.223-.698-.277zM767.188 592.085l.698.277 2.48-6.223-.697-.277zM773.181 592.085l.698.277 2.481-6.223-.698-.277zM779.173 592.085l.697.277 2.484-6.223-.698-.277zM785.167 592.085l.698.277 2.483-6.223-.697-.277zM791.161 592.085l.698.277 2.482-6.223-.697-.277zM797.155 592.085l.697.277 2.483-6.223-.698-.277zM803.15 592.085l.696.277 2.483-6.223-.698-.277zM809.143 592.085l.698.277 2.481-6.223-.698-.277zM815.136 592.085l.698.277 2.482-6.223-.698-.277zM821.13 592.085l.697.277 2.483-6.223-.698-.277zM827.123 592.085l.697.277 2.483-6.223-.698-.277zM833.117 592.085l.698.277 2.481-6.223-.698-.277zM839.11 592.085l.698.277 2.482-6.223-.697-.277zM845.104 592.085l.698.277 2.483-6.223-.697-.277zM851.098 592.085l.697.277 2.484-6.223-.698-.277zM857.092 592.085l.697.277 2.484-6.223-.698-.277zM863.086 592.085l.698.277 2.482-6.223-.698-.277zM869.08 592.085l.698.277 2.482-6.223-.698-.277zM875.074 592.085l.698.277 2.48-6.223-.697-.277zM881.066 592.085l.698.277 2.483-6.223-.698-.277zM887.06 592.085l.697.277 2.483-6.223-.697-.277zM893.054 592.085l.698.277 2.482-6.223-.697-.277zM899.047 592.085l.698.277 2.482-6.223-.697-.277zM905.042 592.085l.697.277 2.483-6.223-.698-.277zM911.036 592.085l.698.277 2.48-6.223-.697-.277zM917.028 592.085l.697.277 2.484-6.223-.698-.277zM923.022 592.085l.698.277 2.482-6.223-.698-.277zM929.016 592.085l.698.277 2.482-6.223-.698-.277zM935.01 592.085l.697.277 2.482-6.223-.698-.277zM941.002 592.085l.698.277 2.483-6.223-.697-.277zM946.996 592.085l.697.277 2.483-6.223-.697-.277zM952.991 592.085l.697.277 2.483-6.223-.698-.277zM958.984 592.085l.697.277 2.483-6.223-.698-.277zM964.978 592.085l.698.277 2.482-6.223-.698-.277zM970.972 592.085l.698.277 2.481-6.223-.698-.277zM976.964 592.085l.697.277 2.484-6.223-.698-.277zM982.958 592.085l.698.277 2.482-6.223-.698-.277zM988.952 592.085l.698.277 2.482-6.223-.698-.277zM994.946 592.085l.697.277 2.482-6.223-.697-.277zM1000.939 592.085l.698.277 2.483-6.223-.697-.277zM1006.934 592.085l.697.277 2.482-6.223-.698-.277zM1012.927 592.085l.697.277 2.484-6.223-.698-.277zM1018.92 592.085l.699.277 2.482-6.223-.698-.277zM1024.915 592.085l.698.277 2.482-6.223-.698-.277zM1030.909 592.085l.698.277 2.48-6.223-.697-.277zM1036.9 592.085l.699.277 2.483-6.223-.698-.277zM1042.896 592.085l.698.277 2.48-6.223-.697-.277zM1048.889 592.085l.698.277 2.482-6.223-.697-.277zM1054.882 592.085l.698.277 2.484-6.223-.698-.277zM1060.877 592.085l.697.277 2.483-6.223-.698-.277zM1066.87 592.085l.698.277 2.482-6.223-.698-.277zM1072.864 592.085l.698.277 2.482-6.223-.698-.277zM1078.857 592.085l.698.277 2.483-6.223-.698-.277zM1084.851 592.085l.698.277 2.482-6.223-.698-.277zM1090.844 592.085l.698.277 2.483-6.223-.698-.277zM1096.838 592.085l.698.277 2.482-6.223-.697-.277zM1102.831 592.085l.698.277 2.482-6.223-.697-.277zM1108.826 592.085l.697.277 2.482-6.223-.697-.277zM1114.82 592.085l.696.277 2.484-6.223-.698-.277zM1120.812 592.085l.697.277 2.484-6.223-.698-.277zM1126.806 592.085l.698.277 2.483-6.223-.698-.277zM1132.8 592.085l.698.277 2.482-6.223-.698-.277zM1138.794 592.085l.698.277 2.481-6.223-.698-.277zM1144.787 592.085l.698.277 2.482-6.223-.698-.277zM1150.78 592.085l.698.277 2.483-6.223-.697-.277zM1156.774 592.085l.698.277 2.482-6.223-.697-.277zM1162.768 592.085l.698.277 2.484-6.223-.698-.277zM1168.763 592.085l.697.277 2.483-6.223-.698-.277zM1174.756 592.085l.698.277 2.482-6.223-.698-.277zM1180.75 592.085l.697.277 2.483-6.223-.698-.277zM1186.743 592.085l.698.277 2.483-6.223-.698-.277zM1192.737 592.085l.698.277 2.482-6.223-.698-.277zM1198.73 592.085l.698.277 2.483-6.223-.698-.277zM1204.723 592.085l.698.277 2.483-6.223-.697-.277zM1210.718 592.085l.698.277 2.48-6.223-.696-.277zM1216.712 592.085l.697.277 2.483-6.223-.698-.277zM1222.705 592.085l.697.277 2.484-6.223-.698-.277zM1228.699 592.085l.698.277 2.482-6.223-.698-.277zM1234.692 592.085l.698.277 2.483-6.223-.698-.277zM1240.685 592.085l.698.277 2.483-6.223-.698-.277zM1246.68 592.085l.697.277 2.483-6.223-.698-.277zM1252.673 592.085l.698.277 2.482-6.223-.698-.277zM1258.666 592.085l.698.277 2.483-6.223-.697-.277zM1264.66 592.085l.698.277 2.484-6.223-.698-.277zM1270.654 592.085l.697.277 2.484-6.223-.698-.277zM1276.649 592.085l.698.277 2.481-6.223-.698-.277zM1282.642 592.085l.698.277 2.482-6.223-.698-.277zM1288.635 592.085l.698.277 2.482-6.223-.698-.277zM1294.63 592.085l.697.277 2.482-6.223-.698-.277zM1300.622 592.085l.698.277 2.483-6.223-.698-.277zM1306.616 592.085l.697.277 2.483-6.223-.697-.277zM1312.61 592.085l.698.277 2.481-6.223-.697-.277zM1318.604 592.085l.697.277 2.483-6.223-.698-.277zM1324.597 592.085l.697.277 2.483-6.223-.698-.277zM1330.591 592.085l.697.277 2.483-6.223-.698-.277zM1336.585 592.085l.698.277 2.483-6.223-.698-.277zM1342.578 592.085l.698.277 2.483-6.223-.698-.277zM1348.572 592.085l.698.277 2.482-6.223-.698-.277zM1354.566 592.085l.698.277 2.482-6.223-.698-.277zM1360.559 592.085l.698.277 2.482-6.223-.697-.277zM1366.553 592.085l.698.277 2.482-6.223-.697-.277zM1372.547 592.085l.697.277 2.484-6.223-.698-.277zM1378.54 592.085l.697.277 2.484-6.223-.698-.277zM1384.535 592.085l.698.277 2.48-6.223-.697-.277zM1390.528 592.085l.698.277 2.482-6.223-.698-.277zM1396.521 592.085l.698.277 2.482-6.223-.698-.277zM1402.515 592.085l.698.277 2.482-6.223-.698-.277zM1408.508 592.085l.698.277 2.483-6.223-.697-.277zM1414.501 592.085l.698.277 2.483-6.223-.697-.277zM1420.495 592.085l.698.277 2.483-6.223-.697-.277zM1426.488 592.085l.698.277 2.484-6.223-.698-.277zM1432.484 592.085l.697.277 2.482-6.223-.698-.277zM1438.457 592.085l.698.277 2.483-6.223-.698-.277zM1444.451 592.085l.698.277 2.482-6.223-.698-.277zM1450.445 592.085l.697.277 2.483-6.223-.697-.277zM1456.44 592.085l.697.277 2.481-6.223-.697-.277zM1462.433 592.085l.697.277 2.483-6.223-.698-.277zM1468.427 592.085l.698.277 2.481-6.223-.698-.277zM1474.42 592.085l.698.277 2.483-6.223-.698-.277zM1480.414 592.085l.698.277 2.482-6.223-.698-.277zM1486.408 592.085l.698.277 2.482-6.223-.698-.277zM1492.4 592.085l.699.277 2.482-6.223-.698-.277zM1498.394 592.085l.698.277 2.483-6.223-.697-.277zM1504.389 592.085l.698.277 2.48-6.223-.696-.277zM1510.383 592.085l.697.277 2.483-6.223-.698-.277zM1516.376 592.085l.697.277 2.483-6.223-.698-.277zM1522.37 592.085l.698.277 2.482-6.223-.698-.277zM1528.364 592.085l.698.277 2.48-6.223-.697-.277zM1534.356 592.085l.698.277 2.483-6.223-.698-.277zM1540.35 592.085l.698.277 2.482-6.223-.698-.277zM1546.344 592.085l.698.277 2.482-6.223-.698-.277zM1552.337 592.085l.698.277 2.482-6.223-.697-.277zM1558.33 592.085l.698.277 2.483-6.223-.697-.277zM1564.326 592.085l.697.277 2.482-6.223-.698-.277zM1570.32 592.085l.696.277 2.483-6.223-.698-.277zM1576.312 592.085l.697.277 2.484-6.223-.698-.277zM1582.306 592.085l.698.277 2.482-6.223-.698-.277zM1588.3 592.085l.698.277 2.481-6.223-.698-.277zM1594.293 592.085l.697.277 2.483-6.223-.698-.277z"/>
        <path fill="#5C8697" d="M.262 587h1600v-2H.262z"/>
    </g>
</svg>
