<?xml version="1.0" encoding="UTF-8" standalone="no"?>
<svg width="300px" height="70px" viewBox="0 0 300 70" version="1.1" xmlns="http://www.w3.org/2000/svg" xmlns:xlink="http://www.w3.org/1999/xlink">
    <defs>
        <polygon id="path-1" points="137.9466 33 0 33 0 0.3473 137.9466 0.3473"></polygon>
        <polygon id="path-3" points="127 20.741 127 0.359 0.1054 0.359 0.1054 20.741 127 20.741"></polygon>
    </defs>
    <g id="Page-1" stroke="none" stroke-width="1" fill="none" fill-rule="evenodd">
        <g id="Footer" transform="translate(-570.000000, 0.000000)">
            <g id="Logo" transform="translate(570.000000, 0.000000)">
                <rect id="Rectangle-2" fill="#333333" x="0" y="0" width="300" height="70"></rect>
                <g id="Images/Logo/Kaspersky" transform="translate(75.000000, 18.000000)">
                    <g id="Icon">
                        <g id="Group-3" transform="translate(0.000000, 0.652700)">
                            <mask id="mask-2" fill="white">
                                <use xlink:href="#path-1"></use>
                            </mask>
                            <g id="Clip-2"></g>
                            <path d="M93.2816,29.5873 L94.8526,33.0003 C102.3086,27.2973 103.6806,20.9263 98.8276,14.1003 C94.9836,8.6923 99.2136,3.8823 100.4876,2.6313 L97.6356,0.3473 C95.7686,2.3953 90.8736,8.7933 95.1556,15.2283 C99.3006,21.4593 98.8706,24.8373 93.2816,29.5873 L93.2816,29.5873 Z M35.3536,29.5873 L36.9236,33.0003 C44.3796,27.2973 45.7516,20.9263 40.8986,14.1003 C37.0536,8.6923 41.2856,3.8823 42.5586,2.6313 L39.7056,0.3473 C37.8396,2.3953 32.9446,8.7933 37.2276,15.2283 C41.3726,21.4593 40.9416,24.8373 35.3536,29.5873 L35.3536,29.5873 Z M134.0996,6.3593 L129.3786,14.5383 L124.6556,6.3593 L120.8106,6.3593 L129.3786,21.1993 L137.9466,6.3593 L134.0996,6.3593 Z M57.0936,7.5163 C55.7486,6.7263 54.0996,6.3593 51.9036,6.3593 L47.0916,6.3593 L47.0916,26.7413 L50.9386,26.7413 L50.9386,16.5513 L50.9386,10.2053 L51.9036,10.2053 C54.5666,10.2053 56.3936,10.8623 56.3936,13.2543 C56.3936,15.4883 54.1936,16.4683 51.6456,16.5453 C51.5656,16.5483 51.2816,16.5493 51.0916,16.5503 L51.0916,16.5513 L53.6466,20.1983 C54.9096,19.9753 56.0446,19.5663 56.9906,18.9853 C57.0606,18.9403 57.1296,18.8923 57.1996,18.8473 C59.1326,17.5673 60.2376,15.5443 60.2376,13.2543 C60.2376,10.7443 59.1216,8.7063 57.0936,7.5163 L57.0936,7.5163 Z M87.5386,18.8473 C89.4726,17.5673 90.5776,15.5443 90.5776,13.2543 C90.5776,10.7443 89.4606,8.7063 87.4316,7.5163 C86.0886,6.7263 84.4396,6.3593 82.2426,6.3593 L77.4316,6.3593 L77.4316,26.7413 L81.2776,26.7413 L81.2776,16.5513 L81.2776,10.2053 L82.2426,10.2053 C84.9066,10.2053 86.7326,10.8623 86.7326,13.2543 C86.7326,15.4883 84.5346,16.4683 81.9856,16.5453 C81.9046,16.5483 81.6216,16.5493 81.4316,16.5503 L81.4316,16.5513 L88.5676,26.7413 L93.0676,26.7413 L87.5386,18.8473 Z M113.5206,16.5513 L120.6566,6.3593 L116.1566,6.3593 L109.0206,16.5513 L116.1566,26.7413 L120.6566,26.7413 L113.5206,16.5513 Z M105.0226,26.7413 L108.8676,26.7413 L108.8676,6.3593 L105.0226,6.3593 L105.0226,26.7413 Z M8.4996,16.5513 L15.6356,6.3593 L11.1356,6.3593 L3.9996,16.5513 L11.1356,26.7413 L15.6356,26.7413 L8.4996,16.5513 Z M-0.0004,26.7413 L3.8456,26.7413 L3.8456,6.3593 L-0.0004,6.3593 L-0.0004,26.7413 Z M74.4676,10.2053 L74.4676,6.3593 L66.1996,6.3593 L64.2766,6.3593 L62.3546,6.3593 L62.3546,26.7413 L64.2766,26.7413 L66.1996,26.7413 L74.4676,26.7413 L74.4676,22.8963 L66.1996,22.8963 L66.1996,10.2053 L74.4676,10.2053 Z M35.6646,26.7413 L31.8206,26.7413 L25.7966,13.8263 L19.7756,26.7413 L15.9286,26.7413 L25.7966,5.5793 L35.6646,26.7413 Z" id="Fill-1" fill="#FFFFFF" mask="url(#mask-2)"></path>
                        </g>
                        <g id="Group-6" transform="translate(23.000000, 6.652700)">
                            <mask id="mask-4" fill="white">
                                <use xlink:href="#path-3"></use>
                            </mask>
                            <g id="Clip-5"></g>
                            <path d="M109.0704,20.741 L106.3784,15.358 L103.6854,20.741 L109.0704,20.741 Z M48.7354,7.859 L43.3524,10.551 L48.7354,13.242 L48.7354,7.859 Z M0.1054,13.93 L2.7964,19.313 L5.4894,13.93 L0.1054,13.93 Z M123.2214,2.465 C122.3214,2.465 121.4474,3.149 121.4474,4.189 C121.4474,5.305 122.3464,5.937 123.2214,5.937 C124.1964,5.937 125.0344,5.279 125.0344,4.226 C125.0344,3.149 124.1594,2.465 123.2334,2.465 L123.2214,2.465 Z M115.8044,7.967 L115.8044,5.862 L119.7474,5.862 L120.2804,5.862 C119.4824,5.114 119.4824,4.112 119.4824,3.821 C119.4824,2.35 120.5344,0.359 123.1954,0.359 C125.7334,0.359 127.0004,2.122 127.0004,3.91 C127.0004,4.899 126.5174,5.659 126.0114,5.952 L126.7584,5.952 L126.7584,7.967 L115.8044,7.967 Z M123.2724,15.026 C123.9184,15.026 125.0344,14.544 125.0344,13.277 C125.0344,12.529 124.6784,12.072 124.2484,11.805 C123.9694,11.627 123.6654,11.539 123.3474,11.514 C123.0314,11.489 122.7144,11.551 122.4234,11.691 C121.9414,11.919 121.4474,12.4 121.4474,13.289 C121.4474,14.494 122.4604,15.026 123.2594,15.026 L123.2724,15.026 Z M126.7584,9.409 L126.7584,11.514 L125.9974,11.514 C126.6834,11.894 127.0004,12.768 127.0004,13.593 C127.0004,15.826 125.2504,17.132 123.2334,17.132 C120.9264,17.132 119.4824,15.47 119.4824,13.593 C119.4824,12.44 120.0384,11.793 120.4704,11.514 L119.7224,11.514 L119.7224,9.409 L126.7584,9.409 Z M115.8044,20.741 L126.7584,20.741 L126.7584,18.637 L115.8044,18.637 L115.8044,20.741 Z" id="Fill-4" fill="#FFFFFF" mask="url(#mask-4)"></path>
                        </g>
                    </g>
                </g>
            </g>
        </g>
    </g>
</svg>