<?xml version="1.0" encoding="UTF-8" standalone="no"?>
<svg width="345px" height="210px" viewBox="0 0 345 210" version="1.1" xmlns="http://www.w3.org/2000/svg" xmlns:xlink="http://www.w3.org/1999/xlink">
    <!-- Generator: sketchtool 47.1 (45422) - http://www.bohemiancoding.com/sketch -->
    <title>CB4327C9-744C-4F77-8611-4995B82C8B66</title>
    <desc>Created with sketchtool.</desc>
    <defs>
        <polygon id="path-1" points="0 210 210 210 210 0 0 0"></polygon>
        <rect id="path-3" x="0" y="0" width="189" height="93" rx="10"></rect>
    </defs>
    <g id="Page-1" stroke="none" stroke-width="1" fill="none" fill-rule="evenodd">
        <g id="Stat">
            <g id="Page-1" transform="translate(182.000000, 30.000000)">
                <polygon id="Fill-1" fill="#B0CDD9" points="151 68 163 68 163 0 151 0"></polygon>
                <polygon id="Fill-2" fill="#5C8697" points="151 68 163 68 163 54 151 54"></polygon>
                <polygon id="Fill-3" fill="#F27179" points="151 55.9385 151 49.8765 146 55.9385 146 62.0005 151 62.0005"></polygon>
                <polygon id="Fill-4" fill="#D34D42" points="151 62 151 55.938 146 62"></polygon>
                <g id="Group-13" transform="translate(0.000000, 7.000000)" fill="#5C8697">
                    <path d="M151,0 L151,10 L144.416,10 C143.637,10 143,9.363 143,8.584 L143,1.412 C143,0.636 143.636,0 144.412,0 L151,0 Z" id="Fill-5"></path>
                    <path d="M151,17 L151,27 L144.416,27 C143.637,27 143,26.363 143,25.584 L143,18.416 C143,17.637 143.637,17 144.416,17 L151,17 Z" id="Fill-7"></path>
                    <path d="M0,44 L0,42 L69,42 C72.859,42 76,38.859 76,35 L76,13 C76,8.037 80.037,4 85,4 L144,4 L144,6 L85,6 C81.141,6 78,9.141 78,13 L78,35 C78,39.963 73.963,44 69,44 L0,44 Z" id="Fill-9"></path>
                    <path d="M87,70 L85,70 L85,30 C85,25.037 89.037,21 94,21 L144,21 L144,23 L94,23 C90.141,23 87,26.141 87,30 L87,70 Z" id="Fill-11"></path>
                </g>
            </g>
            <g transform="translate(-10.000000, 0.000000)">
                <g id="Points">
                    <g id="Page-1">
                        <path d="M97.5,198.5 L112.5,198.5" id="Stroke-1" stroke="#B0CCD8" stroke-dasharray="30,5,5,5"></path>
                        <path d="M97.583,191.5 L112.583,191.5" id="Stroke-2" stroke="#B0CCD8" stroke-dasharray="30,5,5,5"></path>
                        <path d="M97.75,177.5 L112.75,177.5" id="Stroke-4" stroke="#B0CCD8" stroke-dasharray="30,5,5,5"></path>
                        <path d="M97.833,170.5 L112.833,170.5" id="Stroke-5" stroke="#B0CCD8" stroke-dasharray="30,5,5,5"></path>
                        <path d="M97.917,163.5 L112.917,163.5" id="Stroke-6" stroke="#B0CCD8" stroke-dasharray="30,5,5,5"></path>
                        <path d="M98,156.5 L113,156.5" id="Stroke-7" stroke="#B0CCD8" stroke-dasharray="30,5,5,5"></path>
                        <polygon id="Fill-8" fill="#B0CCD8" points="100.6045 88.4673 100.5615 87.8983 91.4035 85.0503 92.0725 85.8133"></polygon>
                        <polygon id="Fill-9" fill="#B0CCD8" points="87.0645 80.1011 100.2815 84.2111 100.2385 83.6431 86.3955 79.3381"></polygon>
                        <polygon id="Fill-10" fill="#B0CCD8" points="67.0342 57.2515 98.9892 67.1895 98.9462 66.6205 66.3642 56.4875"></polygon>
                        <polygon id="Fill-11" fill="#B0CCD8" points="72.042 62.9639 99.313 71.4449 99.27 70.8759 71.372 62.1999"></polygon>
                        <polygon id="Fill-12" fill="#B0CCD8" points="82.0566 74.3887 99.9586 79.9557 99.9146 79.3877 81.3876 73.6257"></polygon>
                        <polygon id="Fill-13" fill="#B0CCD8" points="77.0488 68.6763 99.6358 75.7003 99.5928 75.1313 76.3798 67.9123"></polygon>
                        <polygon id="Fill-14" fill="#B0CCD8" points="62.0264 51.5391 98.6674 62.9341 98.6234 62.3651 61.3564 50.7751"></polygon>
                        <polygon id="Fill-15" fill="#B0CCD8" points="100.9277 92.7227 100.8847 92.1537 96.4097 90.7627 97.0797 91.5267"></polygon>
                        <polygon id="Fill-16" fill="#B0CCD8" points="57.0186 45.8267 98.3436 58.6777 98.3006 58.1087 56.3496 45.0627"></polygon>
                        <g id="Group-43">
                            <path d="M90.415,14.6611 C90.834,14.6041 91.253,14.5471 91.674,14.4961 L95.07,15.5531 L95.113,16.1221 L90.415,14.6611 Z" id="Fill-17" fill="#B0CCD8"></path>
                            <path d="M50.8096,31.4307 L97.3736,45.9107 L97.3306,45.3427 L51.3236,31.0347 C51.1526,31.1667 50.9796,31.2967 50.8096,31.4307" id="Fill-19" fill="#B0CCD8"></path>
                            <path d="M47.1797,34.457 L97.6977,50.166 L97.6547,49.598 L47.6517,34.048 C47.4937,34.184 47.3357,34.319 47.1797,34.457" id="Fill-21" fill="#B0CCD8"></path>
                            <path d="M54.7686,28.5063 L97.0516,41.6553 L97.0076,41.0863 L55.3296,28.1253 C55.1416,28.2523 54.9546,28.3773 54.7686,28.5063" id="Fill-23" fill="#B0CCD8"></path>
                            <polygon id="Fill-25" fill="#B0CCD8" points="52.0107 40.1143 98.0207 54.4223 97.9777 53.8533 51.3417 39.3503"></polygon>
                            <path d="M75.1758,18.2324 L95.7598,24.6334 L95.7158,24.0644 L76.0458,17.9474 C75.7558,18.0414 75.4648,18.1344 75.1758,18.2324" id="Fill-27" fill="#B0CCD8"></path>
                            <path d="M59.1045,25.6997 L96.7285,37.3997 L96.6855,36.8307 L59.7155,25.3347 C59.5115,25.4557 59.3075,25.5767 59.1045,25.6997" id="Fill-29" fill="#B0CCD8"></path>
                            <path d="M69.1875,20.5249 L96.0825,28.8889 L96.0395,28.3199 L69.9465,20.2059 C69.6935,20.3119 69.4395,20.4169 69.1875,20.5249" id="Fill-31" fill="#B0CCD8"></path>
                            <path d="M82.0996,16.23 L95.4366,20.377 L95.3936,19.809 L83.1086,15.988 C82.7706,16.066 82.4356,16.148 82.0996,16.23" id="Fill-33" fill="#B0CCD8"></path>
                            <path d="M63.8799,23.0293 L96.4049,33.1443 L96.3619,32.5753 L64.5519,22.6833 C64.3259,22.7963 64.1039,22.9143 63.8799,23.0293" id="Fill-35" fill="#B0CCD8"></path>
                            <mask id="mask-2" fill="white">
                                <use xlink:href="#path-1"></use>
                            </mask>
                            <g id="Clip-38"></g>
                            <path d="M12.5,106 L42.5,106 L42.5,105 L12.5,105 L12.5,106 Z M47.5,106 L52.5,106 L52.5,105 L47.5,105 L47.5,106 Z M57.5,106 L87.5,106 L87.5,105 L57.5,105 L57.5,106 Z M92.5,106 L97.5,106 L97.5,105 L92.5,105 L92.5,106 Z M102.5,106 L132.5,106 L132.5,105 L102.5,105 L102.5,106 Z M137.5,106 L142.5,106 L142.5,105 L137.5,105 L137.5,106 Z M147.5,106 L177.5,106 L177.5,105 L147.5,105 L147.5,106 Z M182.5,106 L187.5,106 L187.5,105 L182.5,105 L182.5,106 Z M192.5,106 L197.5,106 L197.5,105 L192.5,105 L192.5,106 Z" id="Fill-37" fill="#B0CCD8" mask="url(#mask-2)"></path>
                            <path d="M109.8418,25.645 C108.2378,25.549 106.6088,25.5 104.9998,25.5 L104.9998,24.5 C106.6278,24.5 108.2778,24.549 109.9028,24.647 L109.8418,25.645 Z M142.9958,35.15 C134.2118,30.362 124.7218,27.316 114.7878,26.096 L114.9088,25.104 C124.9688,26.338 134.5798,29.423 143.4748,34.272 L142.9958,35.15 Z M151.3938,40.433 C150.0578,39.472 148.6728,38.539 147.2768,37.661 L147.8098,36.814 C149.2228,37.704 150.6258,38.648 151.9778,39.622 L151.3938,40.433 Z M174.3808,66.158 C169.4908,57.442 163.0808,49.804 155.3298,43.457 L155.9628,42.684 C163.8118,49.11 170.3018,56.843 175.2538,65.669 L174.3808,66.158 Z M34.1658,68.868 L33.2758,68.413 C37.8798,59.404 44.0688,51.426 51.6678,44.7 L52.3298,45.449 C44.8248,52.092 38.7128,59.971 34.1658,68.868 L34.1658,68.868 Z M178.6928,75.115 C178.0728,73.59 177.3958,72.061 176.6778,70.569 L177.5778,70.135 C178.3058,71.645 178.9918,73.195 179.6178,74.739 L178.6928,75.115 Z M30.2118,77.973 L29.2708,77.633 C29.8358,76.069 30.4598,74.497 31.1278,72.96 L32.0458,73.358 C31.3858,74.876 30.7688,76.429 30.2118,77.973 L30.2118,77.973 Z M185.3918,109.2 L184.3938,109.148 C184.4638,107.775 184.4998,106.379 184.4998,105 C184.4998,96.37 183.1258,87.885 180.4158,79.781 L181.3648,79.464 C184.1088,87.67 185.4998,96.262 185.4998,105 C185.4998,106.396 185.4638,107.81 185.3918,109.2 L185.3918,109.2 Z M24.8238,112.28 C24.6098,109.872 24.4998,107.422 24.4998,105 C24.4988,97.318 25.5788,89.719 27.7108,82.413 L28.6718,82.693 C26.5668,89.908 25.4988,97.413 25.4998,105 C25.4998,107.393 25.6078,109.812 25.8208,112.191 L24.8238,112.28 Z M184.2538,119.187 L183.2698,119.012 C183.5568,117.394 183.7978,115.741 183.9848,114.098 L184.9788,114.211 C184.7888,115.874 184.5448,117.549 184.2538,119.187 L184.2538,119.187 Z M26.3458,122.217 C25.9898,120.592 25.6828,118.928 25.4298,117.272 L26.4178,117.121 C26.6678,118.756 26.9728,120.399 27.3218,122.004 L26.3458,122.217 Z M170.7808,151.412 L169.9648,150.834 C175.7518,142.647 179.8838,133.576 182.2468,123.871 L183.2178,124.107 C180.8258,133.935 176.6418,143.122 170.7808,151.412 L170.7808,151.412 Z M41.0508,153.901 C34.8748,145.839 30.3398,136.82 27.5708,127.094 L28.5308,126.821 C31.2678,136.425 35.7458,145.331 41.8438,153.293 L41.0508,153.901 Z M164.4818,159.242 L163.7428,158.568 C164.8578,157.346 165.9458,156.078 166.9748,154.798 L167.7538,155.425 C166.7108,156.721 165.6108,158.005 164.4818,159.242 L164.4818,159.242 Z M47.6488,161.489 C46.4758,160.298 45.3258,159.057 44.2328,157.798 L44.9868,157.142 C46.0678,158.385 47.2018,159.611 48.3618,160.788 L47.6488,161.489 Z M135.9158,179.349 L135.5308,178.426 C144.7488,174.589 153.0758,169.107 160.2828,162.131 L160.9788,162.85 C153.6818,169.913 145.2488,175.464 135.9158,179.349 L135.9158,179.349 Z M76.9608,180.482 C67.4868,176.961 58.8478,171.739 51.2858,164.96 L51.9538,164.216 C59.4218,170.91 67.9518,176.067 77.3088,179.545 L76.9608,180.482 Z M126.4028,182.624 L126.1368,181.66 C127.7258,181.223 129.3208,180.729 130.8798,180.193 L131.2058,181.138 C129.6268,181.682 128.0108,182.181 126.4028,182.624 L126.4028,182.624 Z M86.5858,183.385 C84.9628,183.005 83.3288,182.567 81.7288,182.085 L82.0178,181.128 C83.5978,181.604 85.2108,182.036 86.8148,182.411 L86.5858,183.385 Z M104.9908,185.5 C100.4728,185.5 95.9398,185.122 91.5168,184.376 L91.6828,183.39 C96.0508,184.126 100.5288,184.5 104.9908,184.5 L104.9998,184.5 C110.4928,184.5 115.9808,183.937 121.3088,182.826 L121.5138,183.804 C116.1168,184.93 110.5618,185.5 104.9998,185.5 L104.9908,185.5 Z" id="Fill-39" fill="#B0CCD8" mask="url(#mask-2)"></path>
                            <polygon id="Fill-40" fill="#F3726D" mask="url(#mask-2)" points="183.038 107 186 107 186 104.038 183.038 104.038"></polygon>
                            <polygon id="Fill-41" fill="#F3726D" mask="url(#mask-2)" points="24.038 107 27 107 27 104.038 24.038 104.038"></polygon>
                        </g>
                    </g>
                    <circle id="Oval-2" fill="#00A88E" cx="104" cy="104" r="63"></circle>
                    <text id="00" font-family="MuseoSans-900, Museo Sans" font-size="60" font-weight="bold" fill="#FFFFFF">
                        <tspan x="66.6" y="137">00</tspan>
                    </text>
                    <path d="M80.728,82 L80.728,69.292 L85.372,69.292 C87.694,69.292 89.368,70.858 89.368,73.27 C89.368,75.682 87.694,77.302 85.372,77.302 L82.51,77.302 L82.51,82 L80.728,82 Z M82.51,75.754 L85.084,75.754 C86.614,75.754 87.55,74.8 87.55,73.27 C87.55,71.74 86.614,70.84 85.102,70.84 L82.51,70.84 L82.51,75.754 Z M90.628,77.428 C90.628,74.674 92.824,72.676 95.542,72.676 C98.26,72.676 100.456,74.674 100.456,77.428 C100.456,80.2 98.26,82.216 95.542,82.216 C92.824,82.216 90.628,80.2 90.628,77.428 Z M92.41,77.428 C92.41,79.336 93.832,80.704 95.542,80.704 C97.27,80.704 98.674,79.336 98.674,77.428 C98.674,75.538 97.27,74.188 95.542,74.188 C93.832,74.188 92.41,75.538 92.41,77.428 Z M102.508,71.074 L104.272,71.074 L104.272,69.292 L102.508,69.292 L102.508,71.074 Z M102.526,82 L104.272,82 L104.272,72.892 L102.526,72.892 L102.526,82 Z M108.951008,74.319116 L108.7,73.8265789 L108.7,74.098 C108.7,74.458 108.664,74.764 108.664,74.764 L108.7,74.764 C108.762004,74.6275907 108.845367,74.4762305 108.951008,74.319116 Z M108.7,73.8265789 L108.951008,74.319116 C109.458723,73.5640149 110.481023,72.676 112.12,72.676 C114.262,72.676 115.252,73.846 115.252,76.168 L115.252,82 L113.506,82 L113.506,76.564 C113.506,75.286 113.236,74.278 111.778,74.278 C110.392,74.278 109.276,75.196 108.898,76.51 C108.79,76.87 108.754,77.284 108.754,77.734 L108.754,82 L107.008,82 L107.008,72.892 L108.7,72.892 L108.7,73.8265789 Z M118.24,78.67 C118.24,81.712 120.562,82.072 121.732,82.072 C122.092,82.072 122.344,82.036 122.344,82.036 L122.344,80.488 C122.344,80.488 122.182,80.524 121.93,80.524 C121.264,80.524 119.986,80.29 119.986,78.472 L119.986,74.422 L122.182,74.422 L122.182,73.018 L119.986,73.018 L119.986,70.39 L118.294,70.39 L118.294,73.018 L117.052,73.018 L117.052,74.422 L118.24,74.422 L118.24,78.67 Z M123.568,80.884 C123.568,80.884 124.792,82.216 127.024,82.216 C129.022,82.216 130.318,81.082 130.318,79.57 C130.318,76.582 125.638,76.942 125.638,75.304 C125.638,74.512 126.376,74.188 127.132,74.188 C128.572,74.188 129.382,74.998 129.382,74.998 L130.084,73.684 C130.084,73.684 129.148,72.676 127.15,72.676 C125.332,72.676 123.856,73.612 123.856,75.268 C123.856,78.238 128.536,77.896 128.536,79.57 C128.536,80.308 127.78,80.704 127.024,80.704 C125.44,80.704 124.414,79.642 124.414,79.642 L123.568,80.884 Z" fill="#FFFFFF"></path>
                </g>
                <g id="Time" transform="translate(147.000000, 110.000000)">
                    <g id="Rectangle">
                        <use fill="#FFFFFF" fill-rule="evenodd" xlink:href="#path-3"></use>
                        <rect stroke="#FFFFFF" stroke-width="3" x="-1.5" y="-1.5" width="192" height="96" rx="10"></rect>
                        <rect stroke="#B0CCD8" stroke-width="1" x="0.5" y="0.5" width="188" height="92" rx="10"></rect>
                    </g>
                    <rect id="Rectangle" fill="#5C8797" x="10" y="10" width="169" height="73"></rect>
                    <text id="0:00:0" font-family="MuseoSans-900, Museo Sans" font-size="26" font-weight="bold" fill="#FFFFFF">
                        <tspan x="65" y="68">0:00:0</tspan>
                    </text>
                    <path d="M40,49 C39.448,49 39,48.55 39,48 C39,47.45 39.448,47 40,47 C40.552,47 41,47.45 41,48 C41,48.55 40.552,49 40,49 M40,45 C39.538,45 39.106,45.114 38.714,45.3 L35.006,41.592 L33.592,43.006 L37.3,46.714 C37.114,47.106 37,47.54 37,48 C37,49.654 38.346,51 40,51 C41.654,51 43,49.654 43,48 C43,46.346 41.654,45 40,45 M40,61 C32.832,61 27,55.168 27,48 C27,40.832 32.832,35 40,35 C47.168,35 53,40.832 53,48 C53,55.168 47.168,61 40,61 M50.294,37.12 L51.306,36.108 L52.72,37.522 L54.134,36.108 L49.892,31.866 L48.478,33.28 L49.892,34.694 L48.748,35.84 C46.536,34.244 43.88,33.242 41,33.05 L41,31 L43,31 L43,29 L37,29 L37,31 L39,31 L39,33.05 C31.196,33.568 25,40.066 25,48 C25,56.272 31.728,63 40,63 C48.272,63 55,56.272 55,48 C55,43.714 53.186,39.856 50.294,37.12" id="Page-1" fill="#FFFFFF"></path>
                    <path d="M69.446,38 L71.228,38 L71.228,26.84 L75.584,26.84 L75.584,25.292 L65.09,25.292 L65.09,26.84 L69.446,26.84 L69.446,38 Z M77.024,27.074 L78.788,27.074 L78.788,25.292 L77.024,25.292 L77.024,27.074 Z M77.042,38 L78.788,38 L78.788,28.892 L77.042,28.892 L77.042,38 Z M83.5060289,30.230643 L83.216,29.957 L83.216,30.098 C83.216,30.458 83.18,30.764 83.18,30.764 L83.216,30.764 C83.2894008,30.5835564 83.3872249,30.404152 83.5060289,30.230643 Z M83.216,29.957 L83.5060289,30.230643 C84.0864453,29.3829659 85.167611,28.676 86.348,28.676 C87.878,28.676 88.778,29.378 89.084,30.746 L89.12,30.746 C89.624,29.648 90.884,28.676 92.36,28.676 C94.412,28.676 95.366,29.846 95.366,32.168 L95.366,38 L93.62,38 L93.62,32.546 C93.62,31.268 93.368,30.26 92,30.26 C90.722,30.26 89.768,31.34 89.444,32.582 C89.354,32.96 89.318,33.374 89.318,33.842 L89.318,38 L87.572,38 L87.572,32.546 C87.572,31.358 87.392,30.26 85.988,30.26 C84.656,30.26 83.72,31.358 83.378,32.654 C83.288,33.014 83.27,33.428 83.27,33.842 L83.27,38 L81.524,38 L81.524,28.892 L83.216,28.892 L83.216,29.957 Z M97.346,33.446 C97.346,30.548 99.308,28.676 101.9,28.676 C104.474,28.676 105.842,30.584 105.842,32.942 C105.842,33.176 105.788,33.698 105.788,33.698 L99.146,33.698 C99.236,35.696 100.658,36.704 102.278,36.704 C103.844,36.704 104.978,35.642 104.978,35.642 L105.698,36.92 C105.698,36.92 104.348,38.216 102.17,38.216 C99.308,38.216 97.346,36.146 97.346,33.446 Z M99.2,32.384 L104.06,32.384 C104.006,30.818 103.034,30.062 101.864,30.062 C100.532,30.062 99.452,30.89 99.2,32.384 Z" fill="#FFFFFF"></path>
                </g>
            </g>
        </g>
    </g>
</svg>