<?xml version="1.0" encoding="UTF-8" standalone="no"?>
<svg width="330px" height="127px" viewBox="0 0 330 127" version="1.1" xmlns="http://www.w3.org/2000/svg" xmlns:xlink="http://www.w3.org/1999/xlink">
    <defs>
        <polygon id="path-1" points="7.44033741e-16 49.1802648 7.44033741e-16 0.571185372 39.8271875 0.571185372 39.8271875 49.1802648"></polygon>
        <polygon id="path-3" points="0 117 206 117 206 0 0 0"></polygon>
    </defs>
    <g id="Page-1" stroke="none" stroke-width="1" fill="none" fill-rule="evenodd">
        <g id="Logo/WhiteBg">
            <g id="Page-1" transform="translate(62.000000, 0.000000)">
                <g id="Group-3" transform="translate(0.000000, 68.000000)">
                    <mask id="mask-2" fill="white">
                        <use xlink:href="#path-1"></use>
                    </mask>
                    <g id="Clip-2"></g>
                    <path d="M39.8271875,32.926797 C39.8271875,43.7634931 33.3771875,49.1802648 20.4784375,49.1802648 C14.1034375,49.1802648 7.7546875,48.4211223 1.4303125,46.9022068 L2.0328125,33.0787516 L19.3490625,36.4204918 L19.3490625,35.0535309 C15.9859375,34.3454603 13.2509375,33.6228878 11.1421875,32.8883354 C9.0346875,32.1550441 7.0771875,31.1298235 5.2703125,29.8126734 C1.7559375,27.2811475 -0.0003125,23.242686 -0.0003125,17.6979193 C-0.0003125,12.1537831 1.6678125,7.91355612 5.0065625,4.9759773 C8.3434375,2.04029004 13.1003125,0.571185372 19.2734375,0.571185372 C25.4478125,0.571185372 31.8965625,1.10271122 38.6228125,2.16576293 L37.1921875,17.280517 L20.4028125,14.6979193 L20.4028125,16.1411728 C27.1284375,17.0529004 32.0465625,18.6859395 35.1596875,21.04029 C38.2709375,23.3946406 39.8271875,27.3574401 39.8271875,32.926797" id="Fill-1" fill="#008E77" mask="url(#mask-2)"></path>
                </g>
                <mask id="mask-4" fill="white">
                    <use xlink:href="#path-3"></use>
                </mask>
                <g id="Clip-5"></g>
                <path d="M64.5119403,99.7439644 L66.9549572,99.7439644 L66.9549572,90.3585408 L64.5119403,90.3585408 L64.5119403,99.7439644 Z M92,117 L69.8562774,117 L68.634135,109.809828 L62.678093,109.809828 L61.3805176,117 L40,117 L49.2389648,70 L82.7610352,70 L92,117 Z" id="Fill-4" fill="#008E77" mask="url(#mask-4)"></path>
                <polygon id="Fill-6" fill="#008E77" mask="url(#mask-4)" points="94 117 115 117 115 70 94 70"></polygon>
                <polygon id="Fill-7" fill="#008E77" mask="url(#mask-4)" points="154.01153 85.2882255 147.159233 85.2882255 147.159233 117 125.613242 117 125.613242 85.2882255 118 85.2882255 118.761577 70 155 70"></polygon>
                <path d="M177.510374,99.7439644 L179.955262,99.7439644 L179.955262,90.3585408 L177.510374,90.3585408 L177.510374,99.7439644 Z M205,117 L182.85528,117 L181.635054,109.809828 L175.679084,109.809828 L174.379623,117 L153,117 L162.24012,70 L195.761148,70 L205,117 Z" id="Fill-8" fill="#008E77" mask="url(#mask-4)"></path>
                <path d="M31.0613287,51.7070838 L34.3825519,51.7070838 L34.3825519,38.8325292 L31.0613287,38.8325292 L31.0613287,51.7070838 Z M31.0613287,26.9000767 L34.3825519,26.9000767 L34.3825519,16.0144745 L31.0613287,16.0144745 L31.0613287,26.9000767 Z M65,45.8456057 C65,52.1254453 63.199857,56.8883301 59.6026995,60.1329981 C56.0042905,63.377666 50.0188306,65 41.6475712,65 L2,65 L2,0 L41.2327311,0 C56.246437,0 63.7548542,5.72202429 63.7548542,17.1660729 C63.7548542,20.7243542 63.3218688,23.4818802 62.4571494,25.4348649 C61.5911786,27.3891116 59.9487123,29.0638197 57.5272478,30.458989 L57.5272478,30.8779815 C62.5090826,32.8315972 65,37.8216467 65,45.8456057 L65,45.8456057 Z" id="Fill-9" fill="#D34D42" mask="url(#mask-4)"></path>
                <path d="M99.4667056,41.135726 L102.803571,41.135726 L102.803571,28.1564232 L99.4667056,28.1564232 L99.4667056,41.135726 Z M137,65 L106.765195,65 L105.097077,55.0558689 L96.9651564,55.0558689 L95.192702,65 L66,65 L78.6158531,0 L124.384775,0 L137,65 Z" id="Fill-10" fill="#D34D42" mask="url(#mask-4)"></path>
                <path d="M168.251539,48.567164 L171.550971,48.567164 L171.550971,19.4686387 L168.251539,19.4686387 L168.251539,48.567164 Z M203,31.0874778 C203,53.6960363 191.244998,65 167.736858,65 L140,65 L140,0 L168.354724,0 C180.934584,0 189.853244,2.66918425 195.111325,8.00755274 C200.370649,13.3452902 203,21.0385986 203,31.0874778 L203,31.0874778 Z" id="Fill-11" fill="#D34D42" mask="url(#mask-4)"></path>
            </g>
            <rect id="Rectangle-7" fill="#008E77" x="64" y="122" width="203" height="5"></rect>
        </g>
    </g>
</svg>